<?xml version="1.0" standalone="no"?>
<!DOCTYPE svg PUBLIC "-//W3C//DTD SVG 20010904//EN"
 "http://www.w3.org/TR/2001/REC-SVG-20010904/DTD/svg10.dtd">
<svg version="1.0" xmlns="http://www.w3.org/2000/svg"
 width="1920.000000pt" height="1080.000000pt" viewBox="0 0 1920.000000 1080.000000"
 preserveAspectRatio="xMidYMid meet">

<g transform="translate(0.000000,1080.000000) scale(0.100000,-0.100000)"
fill="#000000" stroke="none">
<path d="M0 5400 l0 -5400 3745 0 c2060 0 3745 3 3745 6 0 27 -61 126 -105
171 -30 31 -55 61 -55 65 0 5 -34 25 -77 45 -42 19 -88 46 -102 59 -14 13 -29
24 -33 24 -7 0 -12 -22 -10 -41 2 -13 -57 -18 -90 -8 -18 6 -48 13 -67 16 -42
6 -110 47 -118 71 -3 9 -15 27 -27 40 -31 35 -26 143 12 258 17 49 33 105 38
124 12 57 6 131 -14 153 -25 28 -104 81 -122 82 -8 0 -39 14 -69 30 -29 17
-68 38 -86 47 -18 9 -42 32 -53 50 -36 58 -82 152 -82 166 0 8 -6 26 -14 40
-8 15 -24 48 -35 73 -12 25 -55 81 -96 124 -41 43 -75 83 -75 90 0 6 -15 25
-33 42 -19 17 -49 61 -68 98 -29 58 -31 69 -19 79 35 28 71 74 75 97 5 29 48
69 76 70 64 3 82 1 121 -10 24 -8 57 -20 75 -27 17 -8 36 -14 42 -14 6 0 39
-14 72 -31 34 -17 89 -35 122 -40 34 -6 79 -19 102 -31 75 -39 90 -45 116 -52
15 -3 34 -17 43 -31 9 -14 23 -25 31 -25 8 0 15 -3 15 -8 0 -4 13 -13 30 -20
16 -7 32 -22 35 -33 4 -10 17 -22 31 -25 13 -3 24 -10 24 -14 0 -4 11 -11 25
-14 14 -4 25 -13 25 -22 0 -8 7 -17 15 -20 8 -4 15 -10 15 -15 0 -5 -7 -9 -15
-9 -8 0 -15 -9 -15 -20 0 -10 -6 -23 -13 -27 -17 -10 -29 -54 -19 -69 4 -6 15
-14 26 -17 14 -6 17 -14 13 -37 -4 -16 -2 -32 3 -35 22 -13 8 -22 -35 -22 -25
0 -45 4 -45 8 0 5 -4 9 -10 9 -12 0 -24 -63 -15 -89 4 -14 15 -21 31 -21 14 0
42 -9 62 -19 21 -11 54 -22 74 -26 30 -6 38 -12 43 -35 3 -16 17 -40 31 -55
15 -16 23 -34 19 -44 -3 -9 2 -26 10 -37 8 -10 15 -27 15 -36 0 -10 6 -18 13
-18 18 0 49 -36 73 -85 10 -21 29 -50 41 -63 13 -12 26 -41 29 -63 4 -22 11
-42 15 -45 5 -3 9 -14 9 -25 0 -10 7 -19 15 -19 8 0 15 -9 15 -20 0 -12 11
-42 24 -69 14 -26 32 -81 41 -122 9 -41 26 -111 37 -157 18 -70 20 -99 14
-190 -4 -59 -11 -111 -16 -116 -6 -6 -10 -23 -10 -38 l0 -28 1580 0 c869 0
1580 2 1580 5 0 4 -6 18 -14 33 -7 15 -26 71 -41 125 -30 107 -29 118 22 173
20 22 30 24 105 24 46 0 130 7 188 16 253 36 286 42 310 51 14 6 77 14 141 18
64 4 122 10 129 15 21 13 1 30 -35 30 -40 0 -53 5 -212 81 -67 33 -127 59
-133 59 -5 0 -10 5 -10 10 0 6 -15 10 -32 10 -42 1 -89 36 -67 52 11 8 11 9
-3 4 -10 -3 -18 -1 -18 4 0 6 -5 10 -11 10 -5 0 -7 -4 -4 -10 8 -13 5 -12 -33
1 -18 6 -30 14 -28 18 13 20 -34 45 -199 103 -236 84 -278 97 -329 103 -49 6
-53 9 -69 45 -26 60 -57 189 -57 236 0 24 -5 56 -11 71 -6 15 -15 37 -20 48
-4 11 -13 72 -18 135 -6 63 -15 138 -20 165 -6 28 -10 77 -10 111 -1 33 -4 63
-7 67 -4 3 -8 37 -10 74 -11 182 -37 245 -129 313 -30 22 -55 45 -55 49 0 5
-25 26 -56 46 -41 28 -72 39 -117 45 -82 11 -130 21 -142 30 -5 4 -28 11 -50
14 -22 4 -57 19 -77 33 -34 23 -42 24 -115 18 -43 -4 -159 -7 -257 -6 -118 1
-182 -2 -186 -9 -8 -13 -23 -14 -116 -4 -45 4 -84 3 -103 -4 -17 -6 -69 -14
-115 -18 l-83 -7 -7 27 c-4 18 -1 37 10 55 19 33 16 40 -50 111 -20 21 -36 45
-36 51 0 16 -61 142 -73 150 -5 3 -9 30 -10 60 -1 84 23 132 37 74 4 -14 11
-25 16 -25 34 0 7 64 -35 84 -16 7 -51 21 -77 31 l-48 18 0 57 c0 40 -5 62
-15 70 -15 12 -35 52 -64 127 -10 23 -21 34 -44 39 -29 6 -36 2 -79 -47 -27
-29 -48 -57 -48 -62 0 -11 -176 -187 -187 -187 -4 0 -36 -30 -70 -67 -45 -49
-62 -76 -63 -96 0 -43 -74 -129 -138 -161 -29 -14 -57 -26 -63 -26 -6 0 -35
-11 -66 -25 -30 -14 -60 -27 -66 -28 -14 -3 -33 -16 -62 -45 -12 -12 -27 -22
-32 -22 -6 0 -22 -9 -36 -20 -14 -11 -40 -23 -58 -27 -18 -3 -44 -12 -58 -19
-17 -9 -49 -11 -100 -8 -70 5 -81 3 -130 -23 -30 -15 -58 -35 -62 -43 -4 -8
-14 -31 -23 -50 -8 -20 -25 -47 -36 -60 -18 -20 -21 -33 -16 -67 4 -32 1 -47
-16 -68 -24 -30 -30 -85 -11 -92 7 -3 13 -11 13 -19 0 -16 -55 -20 -65 -4 -3
5 -31 17 -63 26 -130 39 -218 67 -228 75 -6 5 -19 10 -30 12 -19 4 -39 11 -79
27 -11 4 -47 14 -79 21 -41 9 -60 18 -63 30 -3 10 -18 21 -35 24 -21 5 -34 16
-43 38 -15 36 -19 39 -133 97 -72 36 -122 78 -122 100 0 10 59 45 91 55 13 4
26 10 29 14 11 13 51 31 69 31 10 0 24 7 31 15 23 28 68 44 100 35 35 -10 67
-3 74 16 6 16 52 19 61 4 10 -16 75 -12 81 5 4 8 12 15 19 15 8 0 20 6 27 12
24 22 108 37 108 19 0 -6 -4 -11 -9 -11 -5 0 -18 -16 -30 -35 l-20 -35 22 -5
c12 -3 63 -1 112 3 104 10 162 7 181 -9 9 -8 14 -36 15 -83 1 -70 1 -71 10
-26 6 25 13 98 18 163 l7 118 65 61 c35 34 79 72 98 85 18 13 59 45 89 73 59
54 82 60 155 39 53 -14 64 -42 42 -105 -21 -61 -29 -135 -17 -153 15 -21 45 1
71 52 22 43 58 88 83 104 22 13 93 114 133 187 37 69 38 70 25 119 -8 31 -31
73 -59 110 -25 32 -57 81 -71 107 -14 27 -37 60 -53 74 -24 23 -27 30 -21 68
10 61 51 145 81 166 14 9 43 33 65 52 l41 35 116 0 116 0 90 -49 c85 -47 94
-49 160 -48 39 0 90 -6 115 -14 49 -16 112 -45 120 -56 3 -3 17 -9 31 -13 33
-8 35 -4 37 125 2 84 -2 111 -16 136 -9 17 -27 49 -39 71 -37 68 -64 75 -102
29 -11 -14 -17 -12 -43 14 -30 31 -48 38 -48 20 0 -18 -29 -10 -35 10 -3 11
-13 20 -22 20 -12 0 -14 -7 -9 -32 8 -38 8 -79 1 -86 -6 -7 -44 28 -57 52 -6
11 -17 51 -24 90 l-14 71 4 -97 c3 -96 -3 -133 -19 -108 -6 10 -10 10 -19 -2
-7 -9 -45 -19 -101 -26 -172 -23 -207 -31 -224 -46 -10 -9 -23 -16 -29 -16 -6
0 -16 -9 -22 -20 -15 -29 -74 -36 -115 -14 -18 10 -38 28 -44 40 -13 29 -68
71 -106 80 -45 11 -125 53 -132 69 -3 8 -9 13 -13 10 -4 -3 -15 6 -23 19 -14
21 -14 25 10 50 21 23 31 27 57 22 17 -3 58 -10 92 -15 34 -5 71 -14 84 -21
12 -6 36 -10 52 -8 19 3 32 0 35 -9 7 -17 133 -18 182 -1 20 7 81 36 136 64
101 52 215 86 328 98 32 4 71 12 85 20 43 21 149 38 252 41 52 2 111 6 131 10
50 9 153 -11 232 -47 37 -17 67 -34 67 -38 0 -15 54 -65 67 -62 16 3 16 -3 3
-29 -6 -11 -8 -24 -5 -30 10 -16 32 8 46 48 14 43 39 74 52 66 6 -3 7 -1 3 5
-10 17 15 62 36 62 10 0 18 -4 18 -9 0 -5 51 -12 114 -16 130 -8 131 -8 224
73 62 55 73 77 50 100 -15 15 -4 27 14 16 15 -10 19 -11 56 -13 l27 -2 -35
-32 c-20 -17 -62 -56 -95 -85 l-60 -53 30 -24 c17 -14 53 -37 80 -51 46 -24
52 -31 69 -86 21 -67 22 -152 4 -333 -6 -60 -10 -117 -10 -125 1 -8 3 -69 4
-135 4 -135 12 -158 63 -179 34 -15 54 -53 40 -75 -3 -7 0 -8 10 -5 30 12 75
155 75 239 0 24 5 47 10 50 19 12 10 52 -19 79 -24 23 -37 28 -65 24 -30 -3
-33 -2 -23 12 19 25 100 100 108 100 4 0 9 10 13 23 5 17 -1 28 -26 50 -18 15
-27 27 -21 27 7 0 50 37 97 81 75 71 85 85 79 107 -6 24 -5 25 33 17 21 -4 45
-8 53 -8 9 0 6 -6 -7 -16 -87 -70 -160 -133 -174 -150 -32 -38 -20 -62 36 -75
l29 -7 -24 -16 c-46 -32 -51 -53 -11 -53 15 0 72 -16 126 -35 79 -27 109 -44
142 -76 l43 -42 35 29 c19 16 37 37 41 46 8 22 -15 58 -37 58 -27 0 -21 12 19
42 19 15 60 51 90 79 50 47 55 55 50 86 -6 32 8 45 27 26 6 -7 29 -13 54 -15
13 -1 17 -18 4 -18 -5 0 -40 -29 -78 -65 -38 -36 -72 -65 -76 -65 -5 0 -8 -7
-8 -15 0 -8 -7 -15 -15 -15 -30 0 -16 -40 20 -57 19 -9 35 -19 35 -22 0 -3
-31 -36 -69 -74 -66 -65 -88 -106 -75 -141 3 -8 38 -24 77 -36 40 -11 93 -27
118 -35 110 -34 117 -33 199 35 41 33 85 69 97 78 39 30 27 77 -23 91 l-29 8
27 11 c14 6 59 42 99 80 66 63 72 73 71 107 -1 34 0 37 21 30 12 -4 32 -9 45
-12 22 -5 31 -23 12 -23 -6 0 -18 -8 -29 -18 -171 -159 -186 -188 -108 -207
15 -4 27 -9 27 -12 0 -3 -33 -40 -72 -82 -89 -95 -107 -124 -87 -144 8 -8 32
-17 54 -21 21 -4 77 -20 124 -36 47 -15 104 -31 126 -35 36 -5 44 -3 80 30 22
20 56 49 75 63 19 15 46 37 60 49 24 22 24 24 8 50 -10 18 -30 32 -52 37 -37
10 -49 26 -19 26 27 0 111 60 157 112 39 45 43 54 35 80 -8 28 -7 30 14 23 12
-4 32 -9 45 -12 12 -3 22 -8 22 -12 0 -4 -32 -36 -70 -71 -39 -36 -79 -82 -90
-102 l-20 -38 23 -14 c12 -8 34 -18 50 -21 27 -7 38 -25 14 -25 -14 0 -97 -83
-147 -148 -42 -55 -36 -62 85 -98 150 -44 224 -64 234 -64 6 0 38 24 71 53
141 120 132 110 125 140 -8 30 -55 56 -104 58 -20 1 -16 4 17 12 32 9 61 31
118 87 65 64 75 79 71 104 l-4 28 50 -7 c28 -3 54 -8 57 -10 4 -2 -36 -48 -87
-102 -51 -54 -93 -105 -93 -114 0 -15 17 -25 73 -43 16 -5 12 -12 -26 -48 -47
-47 -137 -162 -137 -178 0 -14 28 -26 90 -39 30 -7 71 -19 90 -26 67 -27 152
-47 175 -41 12 3 38 21 56 38 19 18 55 50 81 71 74 60 74 103 -2 126 -39 12
-47 31 -11 31 9 0 50 36 89 79 60 67 72 85 72 114 l0 35 47 -12 c26 -7 48 -16
50 -21 2 -6 -18 -32 -43 -60 -98 -107 -135 -155 -129 -164 3 -6 24 -16 45 -22
22 -7 40 -14 40 -16 0 -3 -20 -28 -44 -56 -73 -86 -119 -160 -109 -176 9 -15
53 -28 328 -101 88 -23 201 -55 250 -71 137 -44 141 -43 246 53 87 81 88 83
83 120 -7 38 -7 38 29 38 31 0 43 9 97 67 85 93 94 107 81 132 -17 31 -14 36
25 37 30 0 44 9 79 46 83 89 98 114 91 153 l-7 35 40 0 c34 0 44 5 70 39 54
68 39 87 -99 120 -112 27 -159 40 -182 52 -10 5 -35 9 -57 9 -36 0 -44 -6 -87
-56 -46 -53 -47 -57 -29 -70 31 -23 13 -24 -65 -4 -117 29 -156 42 -142 47 7
3 27 0 44 -6 51 -18 69 -13 118 33 44 41 46 45 34 68 -13 25 -66 47 -164 67
-25 5 -63 15 -85 20 -111 30 -136 32 -170 11 -17 -11 -35 -17 -38 -13 -4 3 -7
-3 -7 -15 0 -12 -3 -22 -8 -22 -4 0 -13 -9 -19 -20 -11 -16 -10 -22 8 -39 21
-19 21 -19 -22 -9 -75 17 -76 18 -55 30 68 38 93 91 64 130 -7 9 -49 26 -93
37 -44 10 -122 31 -174 45 -107 28 -110 28 -179 -38 -27 -26 -41 -47 -38 -59
5 -21 -30 -23 -57 -3 -18 14 -18 14 2 21 11 3 32 20 46 36 49 59 28 94 -76
119 -40 10 -122 31 -181 46 l-106 27 -34 -28 c-45 -38 -78 -84 -71 -101 6 -17
-2 -17 -50 -1 -36 13 -40 27 -8 27 20 1 55 29 70 59 10 18 10 27 -3 46 -9 13
-23 26 -33 29 -98 28 -300 78 -323 78 -41 1 -134 -86 -119 -113 12 -23 -6 -25
-46 -7 -27 12 -34 28 -11 28 14 0 76 64 76 79 0 24 -41 53 -95 67 -153 40
-251 64 -268 64 -24 0 -94 -45 -107 -69 -5 -11 -10 -29 -10 -41 0 -17 -4 -19
-27 -14 -16 4 -41 13 -58 20 l-30 12 35 1 c26 1 45 11 73 37 36 35 37 36 21
63 -18 30 -28 34 -221 81 -125 31 -134 32 -165 17 -48 -23 -92 -72 -86 -95 5
-17 1 -19 -31 -15 -37 5 -68 23 -39 23 8 0 35 18 59 39 43 39 44 40 29 68 -13
23 -28 31 -80 44 -36 10 -111 29 -167 44 l-102 27 -35 -22 c-46 -28 -89 -79
-81 -98 4 -11 0 -13 -17 -8 -13 3 -31 6 -40 6 -10 0 -18 5 -18 10 0 6 8 10 19
10 18 0 91 71 91 88 0 23 -46 44 -155 73 -206 54 -201 54 -257 18 -57 -37 -75
-63 -57 -85 18 -22 10 -22 -56 -3 -43 13 -52 18 -32 18 33 1 104 48 113 74 6
19 -9 42 -37 57 -20 11 -240 70 -286 77 -24 4 -40 -2 -67 -22 l-36 -27 0 24
c0 32 -27 68 -51 68 -26 0 -25 -5 21 -62 36 -45 50 -78 35 -78 -16 0 -63 31
-69 45 -3 9 -10 13 -16 10 -5 -3 -10 -1 -10 4 0 6 -8 11 -18 11 -11 0 -27 9
-38 21 -22 24 -62 45 -154 82 -36 14 -92 42 -125 62 -32 19 -71 35 -86 35 -15
0 -31 5 -34 10 -8 12 -52 13 -59 1 -3 -5 -18 -12 -32 -15 -32 -8 -84 -46 -84
-60 0 -15 -30 -33 -79 -46 -29 -8 -48 -20 -59 -40 -9 -15 -34 -36 -56 -46 -22
-9 -57 -34 -78 -56 -20 -21 -44 -38 -52 -38 -8 0 -18 -9 -21 -21 -4 -11 -21
-27 -39 -36 -18 -8 -41 -28 -50 -44 -13 -23 -21 -27 -34 -20 -14 8 -21 0 -42
-45 -13 -30 -29 -54 -36 -54 -27 0 -59 -38 -59 -70 0 -34 -11 -45 -57 -54 -17
-4 -29 -15 -36 -33 -8 -26 -13 -28 -63 -28 -51 0 -54 -1 -57 -27 -3 -28 -12
-35 -26 -21 -3 4 -14 8 -22 9 -46 7 -61 46 -29 78 41 41 -148 96 -331 96 -67
0 -82 3 -110 25 l-32 25 -59 -26 c-32 -13 -71 -31 -86 -39 -16 -8 -34 -15 -42
-15 -7 0 -26 -7 -41 -15 -16 -8 -41 -15 -56 -15 -16 0 -28 -4 -28 -10 0 -5 -6
-10 -14 -10 -24 0 -66 -41 -66 -65 0 -14 -11 -32 -27 -45 -29 -23 -48 -23
-269 0 -53 6 -100 7 -105 4 -6 -3 -20 1 -33 10 -24 15 -95 19 -290 17 -44 0
-84 4 -91 9 -6 5 -25 9 -41 9 -16 0 -50 3 -76 6 -41 7 -48 12 -57 38 -6 16
-11 60 -11 96 0 46 -6 78 -19 105 -11 21 -23 50 -26 66 -6 26 -2 30 72 70 43
24 101 57 128 75 28 18 70 44 95 58 232 128 240 135 240 190 0 33 -7 46 -41
81 l-41 41 43 38 c44 39 168 91 193 81 7 -3 17 -17 22 -31 9 -26 9 -26 39 26
55 96 74 136 75 159 0 12 15 37 33 56 37 37 122 200 112 216 -4 6 0 21 8 33 7
12 28 67 46 121 33 100 34 106 15 218 -6 40 -39 107 -64 131 -9 9 -10 5 -4
-17 4 -17 2 -31 -4 -35 -12 -7 -2 -61 18 -106 16 -35 29 -152 21 -186 -10 -45
-39 -100 -64 -122 -11 -9 -35 -17 -54 -17 -27 0 -33 4 -33 21 0 11 -4 18 -9
15 -4 -3 -6 -16 -4 -29 7 -37 -26 -68 -80 -74 -26 -3 -52 -12 -58 -19 -19 -23
-75 -17 -96 9 -10 13 -28 26 -41 29 -24 7 -29 -1 -10 -20 8 -8 8 -15 -2 -27
-11 -13 -24 -15 -56 -10 -36 5 -46 2 -70 -21 -33 -30 -61 -43 -119 -55 -85
-17 -175 -42 -295 -80 -69 -21 -131 -39 -139 -39 -8 0 -75 -22 -150 -49 -174
-64 -366 -129 -411 -141 -19 -5 -56 -14 -82 -21 -27 -7 -48 -16 -48 -21 0 -4
-16 -8 -35 -8 -19 0 -58 -9 -87 -19 -29 -11 -84 -27 -123 -36 -38 -9 -76 -22
-82 -27 -19 -16 -17 32 3 72 16 31 16 34 0 45 -11 9 -16 28 -16 68 0 43 -6 65
-25 93 -14 20 -25 46 -25 58 0 27 -37 89 -49 81 -10 -5 -81 85 -81 103 0 17
-79 82 -100 82 -15 0 -20 7 -20 25 0 22 4 25 34 25 19 0 47 -5 62 -11 28 -10
114 -94 114 -110 0 -5 14 -28 30 -51 17 -22 30 -49 30 -59 0 -10 4 -28 9 -41
5 -13 14 -42 21 -64 12 -40 14 -41 44 -34 17 4 65 20 106 34 83 30 127 43 274
82 55 14 125 35 155 47 31 12 64 20 74 18 24 -3 113 16 237 51 76 22 117 29
150 25 41 -5 109 10 185 43 11 4 81 28 155 52 74 23 151 53 170 65 19 11 54
24 77 27 24 3 60 14 80 25 l38 20 -32 1 c-18 0 -49 -9 -70 -19 -21 -11 -55
-22 -77 -25 -21 -4 -42 -9 -46 -11 -5 -3 -43 -10 -84 -15 -41 -5 -83 -14 -93
-19 -10 -6 -52 -20 -93 -31 -41 -12 -89 -25 -106 -31 -17 -5 -37 -9 -45 -9
-20 1 32 39 52 40 9 0 20 7 23 15 3 9 20 22 38 30 18 8 46 25 62 39 16 15 34
26 39 26 12 0 57 48 57 61 0 5 6 9 13 9 7 0 29 8 48 18 l36 18 -24 37 c-13 20
-27 37 -32 37 -12 0 -35 -29 -28 -36 10 -10 -36 -42 -53 -37 -13 4 -13 4 0 -6
11 -7 12 -13 4 -21 -15 -15 -64 5 -64 25 0 9 -6 18 -14 21 -12 4 -13 12 -5 32
5 14 8 31 5 39 -3 7 1 13 10 13 8 0 12 -5 9 -10 -7 -12 33 -49 53 -50 6 0 12
7 12 15 0 8 -5 15 -11 15 -13 0 -38 30 -39 45 0 6 13 16 29 22 26 9 30 17 33
54 3 39 6 44 28 46 14 1 19 0 13 -3 -16 -7 -17 -34 -2 -34 5 0 7 -4 4 -10 -3
-5 -1 -11 4 -11 6 -1 16 -2 21 -3 6 0 15 -7 19 -15 8 -12 11 -12 24 1 14 13
12 17 -13 32 -32 18 -46 48 -33 70 8 14 88 76 98 76 2 0 25 -32 50 -71 31 -47
52 -69 63 -67 20 4 32 47 18 70 -8 13 -6 22 7 36 20 22 14 49 -15 58 -18 6
-19 7 -2 25 9 10 28 19 41 19 13 0 22 4 18 9 -3 5 21 15 52 21 32 7 67 16 78
21 11 5 38 12 60 17 36 7 40 11 43 40 3 25 8 32 20 30 10 -2 16 -11 14 -23 -2
-15 0 -16 6 -7 7 10 22 2 62 -35 73 -65 220 -252 220 -278 0 -23 67 -98 83
-92 6 2 24 27 40 56 27 48 29 54 14 63 -20 10 -182 145 -282 233 -38 34 -91
76 -117 94 -26 17 -52 41 -58 51 -14 26 -38 25 -102 -4 -97 -43 -162 -73 -228
-102 -36 -15 -89 -41 -119 -56 -29 -15 -59 -28 -66 -28 -7 0 -15 -3 -17 -8 -1
-4 -48 -27 -103 -51 -55 -25 -104 -48 -109 -53 -20 -17 -60 -7 -130 31 -181
99 -273 151 -301 170 -16 11 -60 36 -96 55 -37 19 -84 47 -105 61 -20 14 -67
40 -103 57 -36 18 -69 36 -72 41 -14 19 -96 7 -224 -33 -38 -12 -99 -30 -135
-40 -36 -10 -99 -29 -140 -43 -41 -13 -95 -30 -120 -37 -25 -7 -110 -34 -190
-60 -80 -26 -165 -53 -190 -60 -25 -7 -54 -16 -65 -20 -11 -4 -45 -15 -75 -23
-30 -9 -93 -27 -140 -40 -281 -81 -355 -95 -412 -77 -57 17 -246 104 -310 141
-51 30 -79 35 -34 6 37 -25 120 -112 136 -144 8 -15 18 -30 21 -33 9 -7 29
-70 29 -90 0 -9 -12 -30 -26 -45 -15 -16 -23 -34 -19 -43 3 -9 -2 -31 -12 -49
-17 -32 -17 -33 5 -53 12 -11 22 -27 22 -36 0 -20 -30 -30 -40 -13 -5 7 -12
10 -17 6 -4 -5 -1 -12 6 -16 7 -5 10 -14 7 -20 -12 -20 -26 -1 -26 35 0 35
-22 48 -34 19 -8 -23 -26 -18 -27 8 -1 16 -2 18 -6 5 -2 -10 -11 -18 -19 -18
-10 0 -13 -8 -9 -27 5 -27 5 -27 -6 -6 -11 21 -13 21 -24 6 -11 -15 -14 -13
-30 17 -9 18 -70 86 -134 149 -117 117 -153 151 -269 250 -65 55 -92 100 -92
155 -1 17 -7 42 -15 56 -8 14 -14 35 -15 47 0 12 -11 44 -25 71 -14 28 -25 55
-25 61 0 6 -27 65 -60 130 -51 102 -59 123 -50 145 5 15 21 31 35 38 27 12 31
23 15 33 -25 15 -108 202 -109 246 -1 9 6 20 15 23 13 5 8 14 -25 47 -23 23
-41 48 -41 57 0 14 -25 51 -68 100 -26 29 -20 47 20 61 48 17 63 14 96 -20 37
-38 117 -55 110 -23 -2 11 -20 25 -43 34 -42 16 -172 84 -240 125 -22 13 -53
31 -69 41 -54 31 -89 72 -104 121 -25 85 -26 157 -2 249 14 55 18 89 12 101
-32 63 -45 250 -21 294 7 13 22 40 32 59 10 19 24 46 32 60 19 35 55 177 55
218 0 19 14 64 30 99 17 34 30 69 30 76 0 19 36 81 65 113 21 22 25 35 21 59
-5 25 -1 36 20 56 15 13 44 60 66 104 21 44 45 83 53 88 8 4 17 24 20 45 11
62 15 71 31 65 8 -3 14 1 14 9 0 8 11 20 24 28 16 8 26 25 30 49 13 74 18 92
24 87 8 -9 29 26 41 70 6 22 17 48 25 59 14 18 15 18 16 3 0 -10 7 -18 15 -18
11 0 15 -12 15 -48 0 -27 6 -57 14 -67 8 -11 12 -25 9 -32 -3 -7 0 -13 6 -13
7 0 11 -30 11 -87 -1 -215 -1 -213 20 -213 23 0 27 -15 5 -24 -8 -3 -15 -15
-15 -26 0 -19 4 -20 53 -14 69 9 106 23 88 33 -9 6 -7 10 8 14 13 3 19 1 15
-5 -9 -14 15 -28 48 -28 15 0 30 -4 33 -10 3 -5 30 -10 60 -10 30 0 57 5 60
10 3 6 1 10 -5 10 -6 0 -8 4 -5 10 4 6 74 10 179 9 98 0 184 5 200 11 15 5 33
7 38 3 6 -3 61 -5 122 -4 139 3 260 39 343 104 29 23 53 45 53 49 0 4 15 24
34 44 22 24 36 50 39 77 3 22 9 43 14 46 5 3 10 28 11 55 2 68 29 155 74 243
21 41 38 81 38 89 0 8 3 14 8 14 11 0 39 105 56 210 43 268 76 516 76 568 l0
22 -1900 0 -1900 0 0 -5400z m2185 4110 c-3 -5 -11 -10 -16 -10 -6 0 -7 5 -4
10 3 6 11 10 16 10 6 0 7 -4 4 -10z m3995 -3104 c0 -3 -4 -8 -10 -11 -5 -3
-10 -1 -10 4 0 6 5 11 10 11 6 0 10 -2 10 -4z m-750 -426 c12 -8 12 -10 -5
-10 -11 0 -29 -7 -39 -15 -11 -8 -28 -15 -38 -15 -25 0 -24 -46 2 -60 19 -10
28 -40 12 -40 -10 0 -62 59 -62 71 0 5 -4 9 -10 9 -36 0 20 36 65 41 6 1 19 8
30 15 23 16 25 17 45 4z m64 -31 c-2 -4 -11 -6 -19 -2 -16 5 -20 25 -8 37 9 9
34 -24 27 -35z m976 10 c0 -6 -4 -7 -10 -4 -5 3 -10 11 -10 16 0 6 5 7 10 4 6
-3 10 -11 10 -16z m-956 -98 c10 -16 -4 -39 -27 -44 -12 -3 -32 -9 -44 -12
-17 -6 -23 -3 -23 9 0 9 8 16 20 16 10 0 24 9 30 20 11 21 35 27 44 11z m-498
-216 c4 -8 1 -21 -5 -29 -6 -7 -9 -21 -5 -30 4 -12 0 -16 -15 -16 -12 0 -21 5
-21 10 0 6 -7 10 -16 10 -14 0 -14 3 -4 15 18 21 6 29 -20 15 -16 -9 -25 -9
-33 -1 -6 6 -9 11 -6 12 2 0 24 6 49 13 62 18 70 18 76 1z m-168 -47 c-5 -15
-58 -24 -58 -9 0 11 17 19 43 20 11 1 17 -4 15 -11z m-91 -22 c-2 -6 -17 -12
-33 -13 -42 -2 -162 -32 -216 -54 -26 -10 -62 -19 -80 -19 -32 1 -32 1 -13 16
11 8 29 14 40 13 21 -2 47 5 77 22 10 5 26 9 36 9 10 0 22 3 26 7 25 25 171
42 163 19z m125 -38 c-7 -7 -12 -8 -12 -2 0 14 12 26 19 19 2 -3 -1 -11 -7
-17z m163 12 c3 -5 2 -10 -4 -10 -5 0 -13 5 -16 10 -3 6 -2 10 4 10 5 0 13 -4
16 -10z m-1105 -54 c0 -14 -4 -28 -10 -31 -6 -4 -10 7 -10 24 0 17 5 31 10 31
6 0 10 -11 10 -24z m430 -10 c0 -2 -7 -6 -15 -10 -8 -3 -15 -1 -15 4 0 6 7 10
15 10 8 0 15 -2 15 -4z m-240 -70 c0 -11 -19 -15 -25 -6 -3 5 1 10 9 10 9 0
16 -2 16 -4z m-73 -22 c-3 -3 -12 -4 -19 -1 -8 3 -5 6 6 6 11 1 17 -2 13 -5z
m1821 -49 c20 -9 46 -25 58 -36 20 -19 21 -19 122 16 56 19 106 35 110 35 4 0
14 -16 21 -35 16 -45 3 -69 -46 -83 -21 -6 -65 -20 -97 -31 -73 -26 -86 -26
-86 -1 0 22 -28 40 -62 40 -27 0 -78 -21 -78 -32 0 -5 -11 -8 -25 -8 -14 0
-24 -5 -22 -11 1 -6 -7 -16 -18 -22 -11 -7 -24 -18 -28 -24 -4 -7 -17 -13 -28
-13 -35 0 -119 -61 -119 -86 0 -17 -106 -107 -138 -118 -15 -5 -39 -17 -53
-27 -14 -10 -29 -16 -32 -12 -4 3 -9 -2 -13 -11 -3 -9 -12 -16 -19 -16 -7 0
-18 -6 -24 -14 -10 -12 -2 -16 50 -23 l62 -8 18 -50 c17 -49 25 -136 13 -148
-4 -3 -13 0 -21 8 -21 22 -40 18 -47 -8 -7 -29 -42 -33 -57 -6 -8 16 -13 18
-25 8 -8 -6 -14 -18 -14 -25 0 -12 -20 -14 -107 -10 -59 3 -109 9 -111 14 -1
5 -27 7 -56 4 -30 -2 -63 1 -75 8 -17 9 -26 9 -36 0 -11 -9 -23 -9 -46 -1 -18
6 -45 11 -60 11 -15 0 -31 5 -34 10 -3 6 -19 10 -35 10 -16 0 -31 4 -34 9 -3
4 -38 11 -78 14 -40 2 -87 12 -105 21 -31 16 -69 63 -60 73 3 3 33 7 66 9 33
2 73 10 88 16 28 12 28 12 -17 16 -25 1 -52 5 -60 8 -13 4 -13 6 0 14 8 6 25
10 38 10 12 0 30 4 40 9 27 14 92 39 152 57 30 9 64 21 75 25 34 13 79 21 117
22 21 1 33 4 27 7 -12 8 98 50 129 50 11 0 36 9 54 19 18 11 53 25 78 31 42
11 264 128 456 240 110 65 131 70 192 45z m-2058 -25 c-36 -12 -60 -12 -60 0
0 6 19 10 43 9 36 -1 38 -2 17 -9z m157 -57 l25 -58 24 30 c13 17 24 24 24 18
0 -18 48 -16 100 2 23 8 48 15 56 15 28 0 33 -66 12 -174 -16 -85 -55 -119
-121 -107 -11 2 12 41 25 41 6 0 17 -8 24 -17 12 -17 13 -17 14 3 0 12 -7 27
-15 34 -20 16 -82 17 -98 1 -10 -11 -8 -13 8 -9 18 4 20 1 17 -34 -3 -30 -7
-36 -17 -28 -7 6 -20 8 -29 4 -9 -3 -16 -2 -16 4 0 5 8 13 18 17 16 6 16 8 -3
21 -17 13 -18 16 -5 25 11 8 9 9 -10 3 -14 -4 -47 -8 -75 -9 -43 -2 -53 -7
-80 -39 -29 -34 -33 -36 -60 -26 -21 8 -25 14 -17 22 7 7 12 17 12 23 0 15
-48 37 -61 29 -6 -3 -31 -6 -57 -7 -26 0 -49 -4 -52 -7 -7 -11 -108 -38 -115
-32 -15 15 0 32 48 57 28 14 63 32 77 40 55 29 102 45 133 45 18 0 43 6 57 13
38 19 65 15 68 -10 4 -25 22 -32 22 -9 0 7 6 19 14 25 8 7 13 21 11 31 -2 10
3 21 12 24 13 6 13 9 -1 32 -15 22 -14 64 0 64 3 0 17 -26 31 -57z m-250 41
c-3 -3 -12 -4 -19 -1 -8 3 -5 6 6 6 11 1 17 -2 13 -5z m21 -361 c5 -18 -23
-16 -39 3 -11 14 -10 15 11 12 13 -1 25 -9 28 -15z m4572 -223 c0 -5 -20 -23
-45 -41 -41 -29 -58 -53 -54 -75 3 -20 -3 -21 -42 -13 -33 8 -45 6 -58 -5 -38
-34 -105 -74 -118 -69 -7 3 -20 0 -28 -7 -12 -10 -15 -9 -15 8 0 11 -8 22 -20
25 -28 7 -25 41 6 62 36 23 69 30 138 27 55 -2 62 0 114 40 31 24 65 48 76 54
21 12 46 8 46 -6z m55 -50 c3 -5 -3 -10 -15 -10 -12 0 -18 5 -15 10 3 6 10 10
15 10 5 0 12 -4 15 -10z m66 -20 c25 -14 25 -29 0 -27 -11 1 -22 9 -24 19 -6
21 -3 22 24 8z m785 -60 c26 0 13 -15 -57 -65 -107 -76 -157 -124 -139 -135 8
-5 12 -11 10 -14 -3 -2 -16 4 -29 15 -13 10 -18 19 -12 19 5 0 27 15 48 34 21
19 55 49 76 67 33 28 38 37 33 62 -6 29 -5 29 25 23 17 -3 38 -6 45 -6z
m-4216 -40 c0 -5 -4 -10 -10 -10 -5 0 -10 5 -10 10 0 6 5 10 10 10 6 0 10 -4
10 -10z m4417 -16 c-3 -3 -12 -4 -19 -1 -8 3 -5 6 6 6 11 1 17 -2 13 -5z
m-807 -29 c0 -23 -4 -25 -44 -25 -38 0 -50 -6 -92 -45 -61 -56 -84 -59 -49 -8
14 21 25 51 25 67 0 28 1 29 43 23 23 -3 49 -2 57 3 8 5 25 10 38 10 17 0 22
-6 22 -25z m-736 -88 c14 -4 -42 -64 -91 -97 -62 -42 -77 -35 -58 27 8 26 15
62 15 79 l0 32 63 -19 c34 -11 66 -21 71 -22z m-197 -9 c-3 -8 -6 -5 -6 6 -1
11 2 17 5 13 3 -3 4 -12 1 -19z m238 -16 c-3 -3 -11 0 -18 7 -9 10 -8 11 6 5
10 -3 15 -9 12 -12z m2120 -22 c3 -5 18 -10 32 -10 23 0 21 -4 -28 -42 -96
-76 -149 -132 -149 -156 0 -20 -4 -22 -22 -16 -48 14 -51 20 -21 39 15 10 46
35 68 56 22 20 52 48 68 62 24 21 26 28 17 51 -8 22 -7 26 10 26 10 0 22 -4
25 -10z m-2355 -110 c8 -5 12 -11 10 -14 -8 -7 -60 6 -60 15 0 12 31 11 50 -1z
m2845 -21 c5 -6 4 -9 -3 -9 -7 0 -25 -12 -42 -27 -24 -23 -94 -83 -119 -103
-13 -11 -31 -51 -26 -60 10 -16 -11 -19 -48 -6 -47 16 -57 26 -26 26 15 1 48
24 93 65 38 36 73 65 77 65 9 0 4 53 -5 68 -7 12 85 -7 99 -19z m-2880 -30
c65 -22 76 -34 53 -57 -18 -18 -44 -14 -60 10 l-15 22 -35 -22 c-44 -27 -58
-28 -58 -2 0 23 28 70 41 70 5 0 38 -10 74 -21z m3238 -158 c-82 -77 -125
-131 -104 -131 6 0 11 -4 11 -10 0 -9 -87 13 -98 26 -4 4 1 4 11 1 14 -5 38
11 95 65 43 40 78 73 79 74 6 2 5 50 -1 65 -7 15 -4 15 40 1 l48 -16 -81 -75z
m-2648 -29 c-3 -14 -9 -21 -13 -16 -4 6 -16 14 -26 18 -19 6 -19 8 5 30 20 19
25 21 32 9 5 -8 6 -26 2 -41z m3140 1 c11 -3 26 -7 33 -9 9 -3 -4 -20 -34 -47
-127 -112 -158 -152 -133 -168 25 -15 1 -20 -40 -8 l-41 12 91 87 c82 78 90
89 80 108 -16 31 -14 45 7 37 9 -4 26 -9 37 -12z m482 -123 c26 0 25 -3 -37
-66 -36 -36 -78 -78 -93 -92 -23 -21 -27 -33 -23 -55 5 -25 3 -28 -12 -22 -9
4 -33 11 -52 14 l-35 7 31 16 c17 9 59 45 93 80 45 46 61 70 60 88 -2 47 0 51
20 40 11 -5 32 -10 48 -10z m448 -117 c47 -11 48 -13 19 -35 -64 -51 -154
-163 -154 -192 0 -19 -15 -20 -75 -4 -48 13 -60 28 -22 28 24 0 136 83 168
124 16 20 18 34 13 62 -6 34 -5 37 12 29 10 -4 28 -9 39 -12z m512 -19 c-3 -3
-12 -4 -19 -1 -8 3 -5 6 6 6 11 1 17 -2 13 -5z m-307 -99 c0 -2 -7 -5 -15 -9
-9 -3 -15 0 -15 9 0 9 6 12 15 9 8 -4 15 -7 15 -9z m273 0 c56 -13 84 -25 59
-25 -27 0 -192 -175 -192 -204 0 -7 10 -18 23 -24 12 -6 16 -11 9 -11 -14 -1
-164 38 -170 44 -2 2 12 7 32 10 28 6 52 24 107 83 65 70 70 78 64 109 -7 38
-9 37 68 18z m-1253 -70 c-7 -8 -20 -15 -29 -15 -13 1 -13 3 3 15 26 19 42 19
26 0z m-1042 -25 c3 -21 2 -22 -12 -11 -8 7 -20 10 -26 6 -14 -9 -13 8 2 23
17 17 32 10 36 -18z m2657 0 c18 -8 17 -9 -7 -9 -16 -1 -28 4 -28 9 0 12 8 12
35 0z m75 -20 c20 -6 21 -8 5 -8 -11 0 -29 3 -40 8 -25 11 1 11 35 0z m86 -28
c-10 -2 -22 0 -28 6 -6 6 0 7 19 4 21 -5 23 -7 9 -10z m-2363 -70 c-5 -22 -33
-31 -33 -11 0 11 32 41 37 35 1 -1 0 -12 -4 -24z m1873 -78 c61 -18 74 -29 41
-38 -27 -8 -167 -173 -167 -197 0 -27 -12 -29 -68 -13 -51 15 -70 34 -34 34
16 0 54 36 149 140 19 22 21 31 14 58 -11 37 -9 38 65 16z m-4686 -395 c0 -5
5 -7 10 -4 6 3 10 2 10 -2 0 -5 -9 -14 -20 -21 -26 -16 -26 -47 0 -65 11 -8
25 -29 31 -46 15 -42 1 -52 -61 -44 -46 5 -90 39 -90 69 0 22 20 57 42 72 10
7 18 19 18 27 0 12 17 21 48 24 6 0 12 -4 12 -10z m4576 -38 c32 -10 75 -22
96 -25 37 -7 62 -36 30 -36 -20 0 -198 46 -212 55 -16 10 -11 25 8 25 10 0 45
-9 78 -19z m-6026 -181 c0 -5 -5 -10 -11 -10 -5 0 -7 5 -4 10 3 6 8 10 11 10
2 0 4 -4 4 -10z m2363 -2075 c-1 -5 -23 -17 -50 -27 -41 -14 -50 -15 -62 -3
-12 12 -12 17 -1 30 10 12 27 15 64 13 28 -2 50 -7 49 -13z"/>
<path d="M5142 4928 c3 -7 13 -15 24 -17 16 -3 17 -1 5 13 -16 19 -34 21 -29
4z"/>
<path d="M4909 4908 c0 -2 -2 -11 -4 -21 -3 -15 -1 -16 11 -6 7 6 11 15 8 20
-5 9 -13 12 -15 7z"/>
<path d="M5202 4853 c3 -29 23 -39 48 -24 12 8 12 13 -4 30 -27 30 -48 27 -44
-6z"/>
<path d="M4030 5126 c0 -2 7 -6 15 -10 8 -3 15 -1 15 4 0 6 -7 10 -15 10 -8 0
-15 -2 -15 -4z"/>
<path d="M4105 5080 c-3 -5 1 -10 9 -10 9 0 16 5 16 10 0 6 -4 10 -9 10 -6 0
-13 -4 -16 -10z"/>
<path d="M5061 10796 c7 -8 238 -56 265 -56 13 0 32 -4 42 -10 37 -21 154 -49
250 -60 110 -13 182 -5 259 31 24 10 49 19 57 19 8 0 16 5 18 11 2 5 23 14 46
20 35 8 50 6 84 -11 32 -15 60 -20 117 -19 42 1 65 4 51 6 -46 9 -78 54 -47
66 6 3 -249 6 -567 6 -319 1 -577 -1 -575 -3z m984 -16 c3 -5 1 -10 -4 -10 -6
0 -11 5 -11 10 0 6 2 10 4 10 3 0 8 -4 11 -10z"/>
<path d="M6328 10793 c6 -2 18 -2 25 0 6 3 1 5 -13 5 -14 0 -19 -2 -12 -5z"/>
<path d="M6398 10792 c-1 -4 -27 -23 -55 -42 -29 -18 -53 -36 -53 -40 0 -17
28 -30 67 -30 42 0 43 -1 43 -33 0 -21 7 -36 20 -45 26 -16 25 -36 -2 -54
l-23 -15 28 -40 c37 -53 35 -103 -4 -103 -27 0 -69 -29 -69 -47 0 -20 38 -8
71 23 29 28 58 30 99 9 15 -8 81 -19 147 -25 128 -12 299 -46 309 -62 6 -10
-5 -25 -68 -88 -35 -34 -41 -36 -80 -30 -24 3 -53 12 -65 18 -28 15 -66 15
-81 0 -7 -7 -12 -26 -12 -43 0 -19 -8 -39 -20 -50 -25 -23 -25 -36 -1 -66 l18
-23 18 35 c21 41 32 49 68 49 30 0 53 -20 79 -68 12 -22 22 -30 33 -26 14 6
16 20 13 86 l-4 80 30 -5 c17 -3 50 -11 73 -18 30 -9 51 -10 70 -3 27 10 28
12 26 76 -2 54 1 68 15 74 9 4 91 9 182 10 91 2 184 9 208 15 31 9 49 9 65 1
30 -14 99 -24 177 -26 36 0 70 -5 77 -9 8 -5 14 0 19 17 5 20 14 25 52 31 26
4 57 13 68 20 12 8 31 11 43 8 13 -3 35 4 59 18 20 14 51 31 67 39 17 8 41 23
55 33 14 10 40 25 57 32 35 15 73 67 73 100 0 28 19 45 49 45 50 -1 94 -58
107 -139 4 -22 12 -47 18 -54 7 -9 63 -21 156 -32 80 -9 176 -21 215 -26 100
-12 119 -6 195 65 72 66 83 67 732 63 421 -3 619 -8 748 -20 276 -25 579 -57
653 -67 37 -6 98 -10 136 -10 80 0 115 20 117 67 0 15 8 62 17 103 22 106 29
149 32 193 l2 37 -2533 0 c-1393 0 -2534 -4 -2536 -8z m372 -271 c0 -15 -28
-33 -40 -26 -8 5 -8 11 1 21 13 15 39 19 39 5z"/>
<path d="M12626 10753 c-8 -27 -18 -66 -22 -88 -3 -22 -15 -70 -26 -106 -11
-38 -18 -87 -16 -115 3 -47 4 -49 43 -60 51 -16 212 -17 254 -3 18 6 30 13 27
16 -9 9 44 146 69 179 14 19 32 49 40 67 8 19 34 59 59 90 26 31 46 58 46 61
0 3 -103 6 -229 6 l-229 0 -16 -47z"/>
<path d="M14351 10748 c4 -81 0 -105 -16 -122 -13 -13 -16 -45 -15 -187 1 -94
-2 -175 -7 -178 -31 -23 -45 -94 -50 -246 -4 -112 -2 -123 17 -148 12 -15 25
-25 30 -22 5 3 14 -1 22 -8 7 -7 24 -16 38 -20 30 -8 127 20 155 44 26 22 80
49 98 49 8 0 29 13 47 29 19 16 39 27 46 24 7 -2 29 0 49 6 26 7 44 6 68 -4
29 -12 222 -54 322 -70 22 -3 69 -12 105 -20 36 -8 108 -21 160 -31 52 -9 129
-24 170 -34 41 -10 116 -23 165 -30 50 -6 99 -15 111 -20 11 -4 52 -11 90 -15
38 -4 83 -11 100 -16 17 -5 80 -16 140 -24 60 -8 123 -17 139 -20 17 -4 77
-13 135 -21 58 -7 123 -16 145 -19 22 -3 74 -10 115 -16 41 -5 95 -14 120 -19
25 -5 97 -14 159 -20 63 -5 151 -16 195 -25 45 -8 144 -24 221 -35 77 -12 160
-25 185 -30 199 -38 281 -53 386 -69 66 -10 154 -26 195 -34 40 -8 103 -20
139 -26 86 -15 299 -58 380 -76 36 -9 99 -19 141 -24 86 -9 173 -47 203 -87
l18 -26 -46 -42 c-25 -24 -46 -49 -46 -58 0 -16 60 -48 92 -48 12 0 36 -11 53
-24 21 -16 40 -23 54 -19 l21 5 0 400 0 400 -45 44 c-31 30 -46 53 -49 77 -4
30 1 40 45 83 l49 48 0 388 0 388 -2426 0 -2426 0 3 -52z m4708 -1114 c10 -22
9 -30 -6 -46 -20 -22 -76 -48 -103 -48 -19 0 -30 19 -30 50 0 24 66 70 101 70
18 0 29 -8 38 -26z"/>
<path d="M6250 10459 c-25 -60 -30 -83 -21 -92 15 -15 31 4 56 63 11 25 24 48
29 51 13 10 -2 59 -18 59 -8 0 -28 -35 -46 -81z"/>
<path d="M4222 10283 c-7 -3 -27 -26 -44 -51 -17 -26 -36 -50 -40 -53 -22 -15
20 -26 67 -19 27 4 56 5 63 3 7 -3 21 2 32 12 10 9 37 19 60 22 50 7 83 43 51
55 -11 4 -31 5 -45 2 -13 -2 -37 1 -53 7 -48 19 -78 26 -91 22z"/>
<path d="M8635 10266 c-38 -14 -49 -22 -101 -74 -24 -23 -51 -59 -60 -80 -14
-35 -151 -570 -385 -1507 -326 -1305 -547 -2181 -589 -2330 -57 -206 -170
-679 -172 -722 l-3 -56 65 -18 c36 -10 76 -18 89 -19 13 0 45 -8 71 -17 43
-15 52 -15 106 -1 32 8 90 27 129 42 50 18 89 26 135 26 60 0 80 -6 223 -70
86 -38 159 -70 161 -70 3 0 31 -15 63 -34 33 -19 72 -38 89 -41 46 -11 114
-53 184 -115 36 -31 79 -64 95 -73 35 -18 94 -77 77 -77 -7 0 -12 6 -12 13 0
8 -4 7 -10 -3 -8 -13 -13 -11 -33 13 -14 15 -29 27 -35 27 -6 0 -17 8 -24 19
-7 10 -29 22 -48 26 -19 4 -47 14 -62 21 -15 8 -40 16 -55 18 -16 2 -43 9 -61
16 -18 7 -35 10 -38 7 -8 -8 203 -168 280 -212 29 -16 67 -40 84 -53 32 -24
52 -22 52 4 0 19 32 18 120 -7 41 -11 93 -24 115 -29 22 -4 74 -17 115 -28 94
-26 375 -99 630 -164 107 -27 301 -76 430 -110 129 -33 251 -63 270 -68 19 -4
125 -32 235 -60 110 -29 214 -54 230 -57 17 -2 37 -7 45 -10 25 -10 181 -52
250 -68 36 -8 99 -24 140 -36 41 -11 86 -22 99 -25 14 -3 28 -7 32 -10 4 -2
27 -8 51 -13 52 -11 162 -38 203 -50 17 -5 73 -19 125 -31 52 -13 104 -26 115
-31 22 -9 144 -38 190 -46 17 -2 39 -8 50 -13 11 -4 52 -15 90 -25 39 -9 86
-21 105 -26 19 -5 55 -14 80 -20 25 -5 62 -14 83 -19 20 -6 54 -14 75 -19 20
-5 55 -15 77 -21 22 -6 58 -15 80 -20 63 -13 216 -52 280 -71 27 -9 33 -5 82
43 l54 53 79 0 c44 0 80 -3 80 -8 0 -5 7 -7 15 -3 18 7 146 -21 160 -35 5 -5
28 -9 51 -9 24 0 46 -5 49 -10 4 -6 18 -9 33 -8 15 1 36 -3 47 -9 11 -6 45
-14 75 -18 30 -4 66 -13 80 -20 14 -7 44 -17 65 -21 63 -11 127 -42 166 -80
l35 -34 21 22 c71 78 91 143 318 1083 25 105 54 224 65 265 11 41 52 206 90
365 39 160 75 306 80 325 5 19 20 82 34 140 14 58 53 218 86 355 34 138 65
268 70 290 5 22 16 67 24 100 15 59 74 302 176 725 82 345 110 459 135 565 13
55 42 177 64 270 23 94 55 226 71 295 16 69 43 184 61 255 19 78 34 168 37
226 5 102 -2 125 -56 197 -26 34 -122 85 -182 96 -46 9 -188 33 -275 46 -38 6
-90 15 -115 20 -25 4 -81 13 -125 20 -44 6 -102 15 -130 20 -27 5 -81 14 -120
19 -38 6 -153 24 -255 41 -195 31 -362 58 -570 90 -69 11 -183 29 -255 40 -71
12 -159 26 -195 31 -36 5 -135 21 -220 35 -166 26 -305 48 -410 64 -36 6 -135
21 -220 35 -85 13 -231 36 -325 50 -93 14 -240 37 -325 50 -223 35 -485 75
-555 85 -101 15 -264 39 -390 60 -66 10 -138 21 -160 24 -22 4 -146 22 -275
42 -129 20 -278 42 -330 49 -52 7 -250 37 -440 65 -190 28 -439 64 -555 81
-115 17 -237 34 -270 39 -77 12 -142 11 -180 -4z m265 -377 c69 -11 181 -29
250 -40 69 -11 152 -24 185 -29 179 -28 444 -71 470 -76 17 -3 59 -9 95 -14
36 -5 117 -18 180 -29 107 -19 342 -56 815 -131 105 -16 215 -34 245 -40 30
-6 141 -24 245 -40 105 -17 215 -34 245 -40 30 -5 114 -18 185 -30 72 -11 155
-25 185 -30 30 -5 114 -19 185 -30 72 -11 153 -25 180 -30 28 -5 68 -12 90
-14 37 -5 77 -11 228 -36 31 -6 84 -14 117 -20 33 -5 88 -15 123 -20 34 -6 89
-15 122 -20 33 -6 85 -14 115 -19 30 -5 84 -14 120 -20 66 -10 208 -33 313
-51 58 -10 114 -19 242 -40 39 -6 96 -15 128 -20 31 -6 83 -14 115 -20 31 -5
89 -14 127 -20 39 -6 93 -15 120 -20 28 -5 82 -14 120 -20 39 -6 93 -15 120
-20 49 -8 94 -16 240 -40 39 -6 93 -15 120 -20 28 -5 84 -14 125 -21 41 -6 98
-17 125 -24 59 -14 58 -3 15 -190 -17 -71 -35 -150 -41 -175 -6 -25 -14 -61
-19 -80 -5 -19 -18 -75 -30 -125 -12 -49 -25 -106 -30 -125 -5 -19 -16 -64
-24 -100 -23 -103 -66 -282 -76 -320 -10 -39 -76 -311 -141 -590 -11 -47 -36
-149 -55 -227 -19 -79 -50 -209 -70 -290 -19 -82 -57 -238 -84 -348 -27 -110
-65 -267 -85 -350 -20 -82 -69 -285 -110 -450 -41 -165 -108 -439 -150 -610
-41 -170 -96 -394 -122 -497 l-47 -188 -30 0 c-16 0 -43 4 -60 10 -17 5 -89
23 -161 40 -71 17 -143 34 -160 39 -16 5 -52 14 -80 20 -55 13 -104 26 -162
41 -21 5 -121 30 -223 54 -102 25 -367 90 -590 145 -223 55 -481 118 -575 141
-391 94 -582 141 -620 151 -68 18 -106 27 -215 53 -130 31 -472 113 -522 126
-83 22 -117 30 -203 50 -90 21 -126 30 -200 49 -22 5 -62 15 -90 21 -27 6 -67
15 -87 21 -98 24 -121 30 -155 39 -21 5 -49 11 -63 14 -14 2 -43 10 -65 16
-22 6 -51 14 -65 16 -14 3 -42 9 -62 14 -35 9 -58 15 -155 39 -21 6 -60 15
-88 21 -49 11 -88 21 -162 40 -21 5 -96 23 -168 40 -71 17 -146 35 -165 40
-40 11 -393 96 -555 135 -197 47 -479 115 -515 125 -19 5 -87 22 -150 38 -96
23 -115 31 -118 48 -2 11 22 119 52 239 55 223 218 875 371 1485 47 184 96
380 109 435 14 55 51 201 82 325 30 124 68 277 84 340 40 165 207 819 220 860
6 19 17 64 24 100 14 66 47 203 73 298 l14 54 52 -7 c29 -4 108 -15 177 -26z"/>
<path d="M8780 9830 c0 -5 5 -10 10 -10 6 0 10 5 10 10 0 6 -4 10 -10 10 -5 0
-10 -4 -10 -10z"/>
<path d="M12347 9282 c-21 -23 -22 -38 -2 -46 12 -4 14 0 9 19 -7 27 12 35 34
13 7 -7 12 -8 12 -2 0 11 -20 34 -30 34 -4 0 -14 -8 -23 -18z"/>
<path d="M13272 9109 c2 -6 8 -10 13 -10 5 0 11 4 13 10 2 6 -4 11 -13 11 -9
0 -15 -5 -13 -11z"/>
<path d="M12918 8833 c7 -3 16 -2 19 1 4 3 -2 6 -13 5 -11 0 -14 -3 -6 -6z"/>
<path d="M13416 6123 c-11 -11 -6 -23 9 -23 8 0 15 4 15 9 0 13 -16 22 -24 14z"/>
<path d="M13466 6111 c-4 -5 3 -15 15 -21 18 -10 20 -9 17 6 -4 20 -23 30 -32
15z"/>
<path d="M14190 6011 c0 -12 5 -21 10 -21 6 0 10 6 10 14 0 8 -4 18 -10 21 -5
3 -10 -3 -10 -14z"/>
<path d="M13286 5651 c-8 -12 0 -16 62 -30 43 -9 53 -3 28 18 -21 17 -82 25
-90 12z"/>
<path d="M13982 5478 c3 -7 18 -14 34 -15 16 -1 21 1 12 3 -10 3 -18 10 -18
15 0 5 -7 9 -16 9 -9 0 -14 -6 -12 -12z"/>
<path d="M13175 5280 c-7 -12 2 -30 15 -30 5 0 14 9 20 20 9 17 8 20 -9 20
-11 0 -23 -4 -26 -10z"/>
<path d="M13236 5255 c-4 -11 1 -15 19 -15 28 0 33 15 9 24 -21 8 -21 8 -28
-9z"/>
<path d="M7316 10175 c-3 -8 -1 -15 4 -15 6 0 10 7 10 15 0 8 -2 15 -4 15 -2
0 -6 -7 -10 -15z"/>
<path d="M7313 10133 c-3 -47 -24 -96 -45 -111 -54 -37 -104 -103 -170 -224
-16 -29 -16 -33 0 -60 9 -15 24 -31 34 -34 10 -3 18 -9 18 -14 0 -5 12 -2 28
6 37 19 45 18 73 -12 24 -26 79 -54 106 -54 10 0 11 5 5 18 -5 9 -7 36 -4 60
4 45 27 57 52 27 16 -19 44 -19 60 1 11 12 10 18 -3 31 -13 14 -21 14 -42 5
-13 -6 -32 -9 -40 -6 -8 4 -22 1 -30 -6 -14 -11 -15 -7 -11 36 2 27 9 50 15
52 6 2 11 20 11 39 0 27 9 45 35 74 19 22 35 47 35 58 0 19 -81 101 -100 101
-5 0 -10 7 -10 15 0 21 -15 19 -17 -2z"/>
<path d="M7817 10060 c-14 -11 -29 -31 -33 -43 -3 -12 -24 -39 -45 -60 -28
-28 -40 -49 -44 -81 -5 -28 -3 -46 4 -51 12 -7 80 62 81 82 0 7 17 29 38 50
33 32 39 44 37 75 -2 49 -7 52 -38 28z"/>
<path d="M8236 9960 c6 -63 15 -80 42 -80 18 0 15 42 -5 70 -10 14 -24 36 -30
50 -11 21 -12 16 -7 -40z"/>
<path d="M6825 9914 c-13 -31 -13 -40 1 -77 29 -79 29 -77 -11 -112 -24 -21
-36 -38 -32 -48 7 -18 112 -69 134 -65 31 6 24 26 -16 50 -23 14 -38 28 -34
31 3 4 0 7 -8 7 -8 1 0 7 16 14 17 7 45 11 62 8 44 -6 54 19 22 61 -13 18 -26
54 -30 85 -9 64 -22 82 -60 82 -23 0 -31 -7 -44 -36z"/>
<path d="M13363 9932 c-13 -2 -23 -8 -23 -13 0 -6 4 -8 9 -5 5 3 11 0 14 -7 3
-7 24 -19 48 -27 24 -7 51 -19 59 -25 22 -17 196 -55 253 -55 33 0 58 -7 78
-20 37 -27 134 -44 159 -28 15 10 27 8 57 -6 62 -30 230 -35 183 -6 -9 6 -14
21 -12 40 6 50 -7 56 -120 58 -110 3 -135 7 -155 27 -7 7 -48 16 -90 19 -43 3
-97 11 -121 16 -23 6 -61 10 -85 10 -23 0 -62 7 -86 16 -39 13 -106 16 -168 6z"/>
<path d="M14231 9924 c0 -11 3 -14 6 -6 3 7 2 16 -1 19 -3 4 -6 -2 -5 -13z"/>
<path d="M7638 9720 c-21 -11 -43 -20 -49 -20 -6 0 -23 -8 -37 -19 -15 -10
-52 -23 -82 -27 -41 -7 -56 -14 -58 -27 -2 -12 4 -20 16 -24 24 -6 34 -37 22
-68 -9 -23 -55 -45 -97 -45 -14 0 -21 -4 -18 -10 4 -6 11 -8 16 -5 5 4 9 -1 9
-10 0 -9 -4 -14 -8 -11 -4 2 -14 1 -22 -5 -11 -6 -8 -9 13 -9 15 0 45 -11 66
-24 l38 -24 33 19 c18 11 34 28 37 37 5 21 70 68 80 58 4 -3 12 7 19 23 9 22
23 33 54 41 22 6 44 18 47 26 3 7 10 14 17 14 6 0 29 9 51 20 51 26 61 25 81
-5 20 -31 50 -32 75 -2 25 30 24 45 -5 72 -19 18 -41 23 -116 29 -50 4 -104 9
-118 12 -17 3 -42 -3 -64 -16z"/>
<path d="M5760 9625 c-25 -13 -52 -24 -62 -25 -9 0 -18 -3 -20 -7 -1 -5 -19
-16 -40 -27 -35 -17 -55 -50 -38 -61 14 -8 106 13 141 33 19 10 46 22 60 25
15 4 36 15 48 24 20 17 21 19 6 41 -20 28 -38 27 -95 -3z"/>
<path d="M8027 9606 c-23 -10 -25 -14 -15 -28 23 -29 52 -30 77 -4 39 41 2 60
-62 32z"/>
<path d="M7209 9577 c-15 -12 -41 -30 -58 -39 -24 -13 -32 -24 -29 -40 3 -20
11 -24 56 -29 29 -4 63 -14 77 -23 37 -24 55 -12 48 32 -3 20 -9 39 -12 42 -3
3 -8 14 -9 25 -4 20 -30 55 -41 55 -3 0 -18 -11 -32 -23z"/>
<path d="M8246 9548 c-5 -18 -8 -20 -15 -9 -9 15 -71 7 -71 -10 0 -5 -17 -9
-38 -9 -26 0 -53 -9 -82 -29 -42 -28 -44 -28 -97 -16 -30 7 -55 14 -56 16 -2
2 -8 16 -14 31 -10 21 -21 28 -57 33 -73 11 -101 0 -136 -56 -16 -27 -30 -63
-30 -79 0 -38 -33 -59 -56 -35 -24 23 -35 18 -24 -11 15 -38 12 -65 -10 -107
-13 -25 -19 -50 -16 -69 7 -46 56 -92 56 -52 0 8 19 24 45 35 25 11 50 29 56
40 18 35 39 113 39 150 0 70 41 78 95 18 32 -35 36 -47 33 -80 -2 -21 -1 -39
2 -39 4 0 14 -6 24 -13 18 -13 17 -15 -6 -53 -14 -21 -38 -51 -52 -66 l-27
-27 38 -10 c21 -6 46 -11 56 -11 34 0 16 -18 -23 -22 -22 -2 -40 -1 -40 2 0
17 -67 25 -165 20 -93 -4 -110 -8 -113 -22 -2 -10 6 -28 18 -40 12 -13 26 -33
31 -45 7 -18 16 -23 47 -23 25 0 50 -8 68 -22 16 -12 30 -22 30 -22 1 -1 5
-16 9 -35 5 -24 4 -32 -5 -26 -13 8 -4 -57 13 -90 11 -21 67 -75 79 -75 3 0
20 17 37 38 29 35 35 37 82 35 28 -1 57 -7 64 -13 18 -15 42 16 54 70 14 58
13 60 -3 60 -12 0 -26 20 -26 37 0 3 11 2 25 -1 14 -4 25 -2 25 4 0 5 -5 10
-11 10 -8 0 -9 14 -5 43 3 23 7 87 7 142 1 62 7 110 15 127 8 15 14 41 14 58
0 25 -5 33 -30 41 -35 13 -39 38 -9 65 12 10 27 31 35 46 10 19 23 28 38 28
12 0 31 9 41 20 10 11 23 20 30 20 6 0 17 11 23 25 6 14 8 25 3 25 -5 0 -11
-10 -15 -22z m-304 -213 c-2 -14 -6 -25 -8 -25 -2 0 -4 11 -4 25 0 14 4 25 9
25 4 0 6 -11 3 -25z m11 -382 c8 -40 -15 -63 -44 -45 -16 11 -19 9 -19 -8 0
-11 -4 -20 -10 -20 -16 0 -12 19 10 51 l21 28 -21 18 c-11 10 -20 26 -20 36 0
15 3 17 14 8 11 -9 15 -8 20 6 6 15 10 13 25 -12 10 -17 21 -44 24 -62z"/>
<path d="M6380 9255 c-23 -27 0 -50 54 -53 27 -2 46 1 46 7 0 7 25 11 60 11
45 0 60 4 60 14 0 10 -18 16 -62 20 -35 3 -81 8 -104 11 -31 5 -43 3 -54 -10z"/>
<path d="M19177 8773 c-12 -11 -7 -44 8 -59 13 -14 15 -11 15 25 0 38 -8 50
-23 34z"/>
<path d="M7495 8632 c-43 -7 -84 -34 -104 -65 -11 -19 -32 -39 -46 -45 -22
-10 -25 -16 -20 -44 5 -24 0 -45 -18 -78 -37 -72 -39 -79 -14 -75 63 9 121 43
154 90 12 17 33 37 47 45 22 11 26 21 27 59 1 25 4 35 6 22 l5 -23 14 21 c26
37 -9 100 -51 93z"/>
<path d="M15540 8568 c-10 -23 -60 -223 -147 -589 -25 -108 -43 -204 -40 -213
5 -12 20 -16 64 -16 91 -1 194 -17 211 -33 24 -25 30 -90 22 -278 -6 -138 -4
-190 6 -222 7 -23 13 -35 14 -27 1 9 5 6 11 -8 5 -13 14 -20 20 -17 5 4 18 1
27 -7 9 -8 29 -20 45 -28 44 -22 33 -38 -29 -42 -31 -1 -58 1 -61 6 -11 17
-33 -28 -33 -65 0 -45 10 -50 109 -54 36 -1 86 -8 110 -16 31 -8 46 -9 48 -2
4 11 39 6 58 -7 31 -22 125 -20 125 3 0 6 -14 22 -32 37 l-31 26 37 22 c20 12
44 22 53 22 8 0 42 12 74 26 51 23 60 32 75 69 16 43 16 111 0 147 -6 14 -2
20 18 28 14 5 26 14 26 19 0 15 60 101 70 101 5 0 28 33 51 72 24 40 62 93 85
118 23 25 45 56 49 69 4 13 40 56 80 95 104 102 226 250 239 292 3 12 3 31 -2
44 -6 17 -2 35 17 71 19 35 23 51 15 59 -6 6 -49 20 -95 31 -46 10 -115 28
-154 39 -38 11 -80 20 -92 20 -12 0 -75 14 -140 31 -144 37 -392 97 -453 108
-59 12 -277 57 -361 76 -83 19 -78 19 -89 -7z m400 -1483 c44 -23 39 -45 -9
-45 -46 0 -70 22 -51 45 16 19 24 19 60 0z"/>
<path d="M17170 8245 c-7 -8 -10 -18 -6 -22 9 -9 59 9 60 22 1 17 -40 17 -54
0z"/>
<path d="M17260 8240 c-18 -11 -6 -25 33 -34 30 -7 35 4 11 28 -18 18 -23 19
-44 6z"/>
<path d="M4141 8170 c-60 -31 -87 -55 -74 -63 5 -3 23 1 39 10 16 8 47 21 69
28 28 9 41 18 43 34 4 27 -10 26 -77 -9z"/>
<path d="M17356 8177 c3 -10 -1 -37 -10 -61 -13 -35 -24 -46 -56 -59 -39 -15
-40 -15 -40 6 -1 44 -24 59 -99 64 -66 4 -71 3 -71 -16 0 -24 -4 -25 -30 -11
-26 14 -52 2 -48 -24 3 -18 13 -23 69 -31 36 -5 73 -16 82 -23 9 -8 25 -11 36
-7 42 13 39 -51 -5 -79 -24 -17 -26 -17 -31 2 -6 26 -128 40 -153 17 -9 -8
-30 -15 -47 -15 -17 0 -37 -8 -47 -19 -16 -18 -15 -19 40 -26 32 -4 72 -14 91
-23 27 -13 38 -14 53 -4 11 7 22 12 25 12 3 0 4 -44 3 -97 -1 -83 2 -104 20
-137 19 -35 20 -41 7 -60 -8 -11 -15 -31 -15 -43 0 -33 25 -19 62 36 56 81
131 171 148 176 20 6 80 -22 80 -38 0 -7 -9 -23 -20 -37 -11 -15 -20 -41 -20
-63 0 -30 -5 -40 -25 -49 -16 -7 -27 -22 -31 -44 -7 -39 -43 -89 -64 -89 -18
0 -20 -27 -3 -32 6 -2 17 5 23 16 18 34 30 24 30 -24 0 -32 -4 -45 -14 -45 -7
0 -21 -16 -30 -35 -18 -38 -36 -38 -36 -2 0 38 -12 67 -26 67 -8 0 -14 -7 -14
-15 0 -8 -11 -22 -24 -30 -14 -9 -29 -30 -35 -46 -5 -16 -16 -29 -24 -29 -8 0
-20 -13 -27 -29 -6 -16 -18 -32 -25 -35 -7 -2 -13 -19 -12 -38 1 -47 -30 -91
-59 -84 -19 5 -30 -3 -63 -46 -30 -40 -38 -59 -34 -79 3 -15 0 -30 -6 -33 -6
-4 -11 0 -11 8 0 9 -4 16 -9 16 -17 0 -49 -50 -44 -69 3 -10 0 -22 -6 -25 -6
-4 -11 -2 -11 4 0 7 -12 4 -30 -7 -19 -11 -30 -25 -30 -39 0 -16 -7 -24 -22
-26 -16 -2 -26 -13 -33 -36 -6 -21 -15 -32 -25 -29 -9 2 -31 -20 -56 -58 -23
-33 -49 -66 -58 -74 -9 -7 -16 -19 -16 -26 0 -7 -7 -18 -15 -25 -8 -7 -15 -21
-15 -32 0 -16 -4 -19 -22 -14 -13 4 -42 10 -64 13 -35 4 -44 2 -58 -18 -9 -13
-16 -35 -16 -50 0 -21 9 -30 49 -49 68 -31 81 -66 70 -186 -4 -49 -8 -100 -9
-114 -1 -14 -4 -19 -7 -12 -5 14 -33 17 -33 3 0 -5 7 -17 16 -26 15 -15 15
-26 -1 -148 -20 -161 -18 -203 10 -199 11 2 83 40 160 84 77 45 149 86 160 92
11 6 31 18 45 27 14 9 99 60 190 113 177 105 200 119 301 187 l67 44 -57 13
c-31 7 -72 16 -91 18 -19 3 -44 9 -55 14 -11 5 -39 11 -62 14 -94 13 -123 18
-123 25 0 3 -23 7 -51 8 -28 1 -56 6 -62 11 -12 10 -93 23 -162 27 -22 1 -53
7 -68 13 -16 7 -42 12 -58 12 -16 0 -29 3 -29 8 0 10 -128 34 -141 27 -5 -3
-6 1 -2 11 5 13 14 15 52 9 25 -3 73 -10 106 -15 74 -11 148 -25 240 -45 38
-8 84 -15 102 -15 17 0 34 -4 37 -9 3 -4 25 -11 48 -14 24 -4 63 -11 88 -17
45 -11 88 -20 187 -39 29 -5 57 -12 62 -15 4 -3 30 -6 57 -7 43 -1 59 5 134
51 47 29 141 88 210 130 200 123 403 251 435 274 17 12 50 32 75 45 25 14 47
27 50 31 3 3 34 24 70 45 80 47 303 188 310 195 3 3 37 24 75 47 39 23 107 65
153 95 45 29 115 73 154 97 l71 45 21 -26 c12 -14 30 -41 41 -59 l20 -34 3 79
c2 52 -1 82 -9 86 -6 4 -59 15 -117 24 -59 9 -132 23 -162 30 -30 8 -118 24
-195 35 -77 12 -176 28 -220 36 -44 9 -109 20 -145 25 -36 5 -87 14 -115 20
-27 6 -79 15 -115 20 -36 5 -119 19 -185 30 -66 12 -147 25 -180 31 -218 37
-293 64 -261 97 13 14 141 -1 326 -37 52 -11 124 -24 160 -31 36 -6 88 -15
115 -20 28 -5 84 -14 125 -20 41 -6 93 -16 115 -21 98 -22 194 -42 240 -49
150 -24 184 -30 230 -40 72 -15 152 -30 215 -40 30 -5 83 -15 118 -23 l62 -14
0 179 0 178 -35 0 c-19 0 -61 7 -93 15 -31 8 -154 33 -272 55 -307 59 -553
108 -645 130 -165 40 -362 83 -412 91 -29 4 -74 14 -100 23 -26 8 -95 25 -153
36 -58 12 -113 29 -123 38 -17 15 -17 15 -11 -1z m-260 -1168 c8 -14 -11 -33
-25 -25 -11 7 -4 36 9 36 5 0 12 -5 16 -11z m-37 -119 c20 0 20 -1 -2 -45 -18
-37 -27 -45 -49 -45 -24 0 -28 4 -28 29 0 16 4 41 10 56 8 22 13 24 29 15 11
-5 29 -10 40 -10z m211 1 c13 -25 13 -58 0 -66 -31 -19 -71 31 -56 70 8 21 43
19 56 -4z m-100 -11 c0 -5 -4 -10 -10 -10 -5 0 -10 5 -10 10 0 6 5 10 10 10 6
0 10 -4 10 -10z m-305 -30 c3 -5 1 -10 -4 -10 -6 0 -11 5 -11 10 0 6 2 10 4
10 3 0 8 -4 11 -10z m185 -154 c0 -35 -10 -56 -26 -56 -16 0 -18 33 -4 61 15
26 30 24 30 -5z m15 -103 c-4 -10 -10 -26 -12 -35 -6 -19 -23 -25 -23 -9 0 21
20 61 31 61 7 0 8 -7 4 -17z"/>
<path d="M7263 8001 c-40 -20 -163 -123 -157 -132 11 -18 714 -72 730 -56 3 2
7 17 10 33 2 16 6 39 9 52 7 31 -9 28 -92 -14 l-71 -35 -44 21 c-42 19 -46 20
-83 5 -38 -16 -85 -13 -85 5 0 6 -11 10 -25 10 -20 0 -29 10 -50 53 -35 76
-76 92 -142 58z"/>
<path d="M16813 7823 c-55 -5 -90 -38 -89 -83 1 -29 6 -35 35 -45 52 -17 49
-41 -5 -37 -34 3 -53 -2 -88 -24 -42 -27 -43 -29 -38 -68 2 -23 7 -43 9 -46 8
-9 78 1 85 13 11 17 28 -11 21 -32 -13 -35 -23 -40 -55 -24 -24 12 -32 13 -38
3 -9 -15 -30 -4 -30 16 0 19 -14 18 -34 -5 -10 -10 -32 -22 -51 -25 -18 -4
-36 -13 -39 -22 -3 -8 -10 -13 -15 -10 -12 8 -39 -26 -70 -89 -6 -11 -26 -38
-45 -60 -40 -45 -40 -56 1 -28 36 24 84 45 90 39 12 -11 -32 -98 -53 -106 -23
-9 -84 -92 -84 -114 0 -8 -7 -19 -15 -26 -9 -7 -15 -29 -15 -50 0 -75 23 -92
54 -40 9 17 22 28 27 25 5 -4 17 7 27 24 17 31 32 40 32 20 0 -5 5 -7 10 -4 6
4 8 10 5 15 -8 13 9 20 25 10 19 -12 -4 -65 -25 -56 -8 3 -16 -3 -20 -15 -7
-20 -25 -27 -25 -9 0 18 -20 11 -21 -7 0 -10 -10 -49 -22 -86 -23 -70 -26
-130 -10 -202 l8 -40 63 -3 c34 -2 62 1 62 6 0 6 25 34 56 63 66 64 79 84 64
102 -41 48 -49 63 -55 97 -4 26 -13 41 -26 45 -14 5 -19 16 -19 45 0 35 3 39
27 42 18 2 29 10 31 22 3 12 0 16 -8 11 -14 -8 -39 23 -40 49 0 10 20 38 45
62 25 25 44 50 42 57 -1 6 8 13 21 15 23 4 31 -13 10 -21 -9 -3 -7 -7 4 -12
24 -9 106 60 133 112 11 21 22 40 25 43 3 3 11 18 19 35 11 26 14 27 22 12 9
-15 12 -16 34 -1 14 9 33 13 44 9 11 -3 29 0 40 7 11 7 23 9 27 5 7 -7 -14
-57 -29 -68 -10 -8 40 -49 59 -49 15 0 104 130 115 167 5 15 1 27 -11 38 -12
11 -21 38 -25 78 -7 63 -19 95 -39 110 -8 6 -7 10 2 14 15 6 16 46 0 41 -6 -2
-21 6 -33 18 -12 12 -40 27 -61 33 -38 11 -58 11 -141 4z m125 -136 c2 -11 -7
-44 -21 -75 -35 -80 -40 -96 -39 -104 1 -5 -2 -8 -8 -8 -12 0 -13 77 -1 84 5
3 11 17 13 31 5 21 2 25 -13 20 -12 -4 -19 -1 -19 7 0 7 -3 23 -6 35 -7 24 11
32 61 30 20 -2 31 -8 33 -20z m-118 -141 c0 -24 -41 -86 -56 -86 -8 0 -14 -4
-14 -10 0 -5 -4 -10 -10 -10 -5 0 -1 14 9 31 10 17 16 39 14 50 -4 13 2 22 18
28 33 14 39 13 39 -3z m-140 -198 c-1 -19 -11 -45 -24 -61 -22 -27 -24 -28
-65 -15 -28 9 -40 18 -38 28 1 8 10 14 18 12 9 -1 20 7 25 19 6 12 26 27 44
34 19 7 36 13 38 14 1 0 2 -14 2 -31z"/>
<path d="M16671 7738 c-10 -28 -5 -39 14 -31 17 6 21 53 5 53 -6 0 -14 -10
-19 -22z"/>
<path d="M7540 7531 c-223 -60 -322 -89 -425 -124 -60 -20 -90 -37 -67 -37 6
0 35 -19 64 -42 52 -42 129 -95 308 -211 47 -30 94 -63 105 -74 34 -32 90 -62
101 -55 6 4 14 21 18 37 13 58 87 351 106 420 30 110 35 145 19 144 -8 0 -111
-27 -229 -58z"/>
<path d="M16500 7539 c0 -5 5 -7 10 -4 6 3 10 8 10 11 0 2 -4 4 -10 4 -5 0
-10 -5 -10 -11z"/>
<path d="M2690 7489 c-30 -4 -109 -13 -175 -19 -97 -9 -136 -18 -203 -46 -45
-19 -99 -34 -120 -34 -35 0 -31 -3 55 -45 51 -25 106 -45 124 -45 38 0 99 20
99 33 0 4 4 6 10 2 5 -3 17 2 27 12 10 10 43 29 73 43 30 13 62 30 71 37 8 7
21 13 27 13 7 0 12 5 12 10 0 6 6 10 13 10 14 1 53 28 46 33 -2 2 -29 0 -59
-4z"/>
<path d="M2120 7396 c0 -2 7 -6 15 -10 8 -3 15 -1 15 4 0 6 -7 10 -15 10 -8 0
-15 -2 -15 -4z"/>
<path d="M16900 7359 c0 -5 5 -7 10 -4 6 3 10 8 10 11 0 2 -4 4 -10 4 -5 0
-10 -5 -10 -11z"/>
<path d="M6495 7206 c-77 -24 -194 -58 -260 -76 -66 -18 -144 -39 -173 -47
-34 -10 -51 -18 -44 -25 17 -17 117 -38 212 -44 l95 -6 100 71 c55 40 111 81
125 92 14 11 40 27 58 36 17 9 32 23 32 30 0 7 -1 13 -2 13 -2 -1 -66 -20
-143 -44z"/>
<path d="M2237 7109 c8 -8 16 -8 30 0 16 9 14 10 -11 11 -22 0 -27 -3 -19 -11z"/>
<path d="M2300 7086 c0 -10 28 -13 41 -5 10 6 7 9 -13 9 -16 0 -28 -2 -28 -4z"/>
<path d="M16190 6952 c0 -9 25 -33 48 -46 8 -5 12 2 12 23 0 28 -3 31 -30 31
-16 0 -30 -4 -30 -8z"/>
<path d="M16615 6912 c-6 -4 -16 -19 -23 -35 -10 -24 -9 -30 8 -47 18 -18 20
-18 36 -3 20 21 44 75 38 85 -6 10 -46 10 -59 0z"/>
<path d="M6137 6282 c-9 -2 -29 -27 -44 -55 -35 -69 -45 -227 -18 -297 29 -78
30 -99 4 -108 -14 -5 -18 -11 -11 -16 6 -3 24 2 39 11 27 17 28 21 20 58 -4
22 -12 66 -17 98 -6 33 -12 62 -14 66 -3 4 1 35 8 69 13 66 42 107 100 143 21
13 26 20 15 23 -25 8 -64 12 -82 8z"/>
<path d="M2685 5969 c7 -11 35 -12 35 -1 0 4 -9 8 -20 9 -11 1 -18 -2 -15 -8z"/>
<path d="M2625 5920 c3 -5 8 -10 11 -10 2 0 4 5 4 10 0 6 -5 10 -11 10 -5 0
-7 -4 -4 -10z"/>
<path d="M2660 5890 c0 -5 5 -10 10 -10 6 0 10 5 10 10 0 6 -4 10 -10 10 -5 0
-10 -4 -10 -10z"/>
<path d="M18780 5825 c0 -8 5 -15 10 -15 6 0 10 7 10 15 0 8 -4 15 -10 15 -5
0 -10 -7 -10 -15z"/>
<path d="M18807 5821 c-6 -23 9 -39 24 -24 5 5 4 16 -4 28 -13 17 -14 17 -20
-4z"/>
<path d="M15613 5795 c-9 -24 5 -32 64 -38 32 -3 76 -10 98 -16 291 -72 439
-103 500 -105 76 -2 46 19 -57 40 -57 11 -112 26 -123 31 -23 12 -194 48 -272
57 -28 4 -67 13 -85 20 -52 21 -118 27 -125 11z"/>
<path d="M18740 5802 c0 -5 9 -17 20 -27 22 -20 26 -14 10 16 -11 19 -30 26
-30 11z"/>
<path d="M18623 5716 c-13 -13 -23 -29 -23 -34 0 -21 23 -25 37 -6 8 10 16 18
18 17 9 -5 35 9 35 19 0 5 -4 7 -9 4 -5 -3 -11 1 -15 9 -8 21 -17 19 -43 -9z"/>
<path d="M18530 5682 c0 -5 9 -20 20 -33 l20 -24 -2 30 c-2 19 -9 31 -20 33
-10 2 -18 -1 -18 -6z"/>
<path d="M18738 5645 c-7 -16 -19 -25 -35 -25 -12 0 -23 -4 -23 -10 0 -5 -5
-10 -11 -10 -7 0 -21 -10 -33 -23 -11 -12 -29 -21 -38 -19 -22 4 -23 -11 -4
-27 19 -16 72 10 81 40 4 13 12 18 22 15 22 -9 53 12 53 34 0 11 5 20 10 20 6
0 10 -5 10 -11 0 -5 4 -7 10 -4 10 6 -9 45 -23 45 -4 0 -13 -11 -19 -25z"/>
<path d="M18244 5645 c-4 -8 -12 -15 -19 -15 -6 0 -22 -9 -35 -20 -12 -11 -26
-17 -30 -15 -4 3 -14 -2 -21 -11 -7 -9 -23 -20 -36 -25 -26 -10 -31 -29 -8
-29 8 0 15 -9 15 -20 0 -21 8 -24 34 -14 12 4 14 10 6 18 -7 9 -2 11 20 8 18
-3 30 0 30 7 0 6 11 16 25 21 14 5 25 14 25 19 0 5 10 11 22 13 29 4 35 34 12
59 -21 23 -33 24 -40 4z m-34 -71 c0 -8 -4 -12 -10 -9 -5 3 -10 10 -10 16 0 5
5 9 10 9 6 0 10 -7 10 -16z"/>
<path d="M5900 5628 c-27 -29 -26 -50 3 -46 12 2 21 9 20 15 -1 6 6 9 17 6 17
-5 18 -3 7 21 -15 32 -21 32 -47 4z"/>
<path d="M18470 5615 c-7 -8 -18 -15 -26 -15 -7 0 -18 -9 -24 -20 -6 -11 -15
-18 -21 -14 -5 3 -16 1 -23 -5 -8 -7 -18 -10 -23 -9 -17 6 -63 -40 -57 -56 3
-9 10 -16 14 -16 15 0 90 44 90 52 0 4 5 8 10 8 6 0 23 12 38 28 15 15 36 27
47 27 11 0 21 8 23 18 4 22 -30 23 -48 2z"/>
<path d="M19169 5584 c-7 -9 -16 -41 -20 -72 -4 -34 -21 -87 -43 -131 -20 -40
-36 -79 -36 -86 0 -7 -7 -15 -15 -19 -8 -3 -20 -17 -27 -31 -14 -32 -31 -32
-73 1 -19 14 -39 23 -45 19 -5 -3 -10 -28 -10 -55 0 -47 -2 -49 -46 -77 l-45
-28 5 -57 4 -58 -34 6 c-22 3 -34 1 -34 -6 0 -8 -10 -9 -30 -5 -27 6 -30 4
-30 -20 0 -14 -4 -24 -9 -21 -5 3 -21 -24 -37 -60 -27 -63 -30 -91 -24 -206 3
-57 -8 -64 -45 -28 -21 21 -40 30 -49 27 -11 -4 -26 4 -43 23 -14 17 -29 30
-33 30 -4 0 -20 -18 -35 -40 -25 -36 -32 -40 -70 -40 -23 0 -44 -3 -48 -6 -3
-3 1 -24 9 -46 12 -34 12 -43 -1 -68 -22 -43 -31 -44 -62 -3 -15 21 -30 40
-33 43 -3 3 -23 27 -45 53 -37 47 -114 95 -133 83 -5 -3 -14 -23 -22 -45 -11
-36 -11 -46 3 -78 9 -21 16 -54 15 -73 -1 -19 2 -47 6 -61 6 -22 1 -33 -33
-70 -30 -33 -41 -53 -41 -77 0 -51 -33 -102 -64 -102 -9 0 -16 -4 -16 -10 0
-21 25 -8 66 35 38 39 43 49 37 76 -5 26 0 35 37 70 38 36 42 43 37 75 -3 20
-1 44 5 53 8 13 4 29 -17 70 -24 48 -25 57 -14 80 7 14 14 27 15 29 0 1 15 -3
32 -9 20 -7 51 -36 84 -77 132 -168 161 -193 152 -129 -3 22 1 41 15 61 15 23
17 34 9 52 -15 33 -3 54 31 54 20 0 37 9 55 31 28 33 37 32 75 -14 15 -18 31
-27 42 -24 10 3 27 -5 40 -19 12 -13 28 -24 34 -24 20 0 39 84 29 127 -10 47
-7 85 12 142 20 59 23 64 40 50 19 -16 45 -4 37 17 -5 13 -2 15 15 9 19 -5 22
-2 22 19 0 24 4 26 41 26 l42 0 -8 33 c-4 17 -9 41 -12 53 -4 16 8 31 46 63
43 37 51 48 51 78 l0 35 35 -22 c41 -25 60 -21 77 15 9 21 17 25 35 20 21 -5
23 -2 23 30 0 19 5 35 10 35 6 0 10 12 10 28 0 15 12 45 25 67 17 27 25 55 25
86 0 25 7 54 15 65 27 36 13 62 -16 28z"/>
<path d="M18540 5522 c-8 -2 -21 -10 -29 -16 -7 -6 -21 -11 -30 -11 -22 0 -27
-43 -6 -51 9 -4 24 1 35 11 11 10 30 23 42 29 38 20 29 51 -12 38z"/>
<path d="M17980 5484 c0 -27 20 -54 41 -54 27 0 35 27 14 50 -22 24 -55 26
-55 4z"/>
<path d="M18220 5470 c0 -5 -6 -10 -14 -10 -7 0 -19 -7 -26 -15 -7 -8 -20 -15
-30 -15 -24 0 -46 -28 -33 -41 15 -15 59 -1 92 30 15 14 36 24 46 22 13 -2 16
1 11 14 -3 9 -6 19 -6 21 0 2 -9 4 -20 4 -11 0 -20 -4 -20 -10z"/>
<path d="M17940 5452 c0 -17 37 -48 47 -38 8 7 -25 56 -37 56 -6 0 -10 -8 -10
-18z"/>
<path d="M18377 5428 c-19 -20 -35 -28 -48 -25 -12 3 -23 -2 -29 -14 -6 -10
-21 -21 -35 -25 -15 -4 -22 -11 -18 -20 3 -8 2 -14 -3 -13 -5 2 -24 -1 -41 -5
-34 -8 -46 -38 -20 -52 6 -4 9 -4 5 1 -11 12 23 34 53 35 32 0 59 20 64 45 2
11 4 22 4 24 1 2 7 -2 15 -8 10 -8 21 -7 45 5 17 8 31 20 31 25 0 5 7 9 16 9
11 0 14 5 10 16 -3 9 -6 20 -6 25 0 16 -14 8 -43 -23z"/>
<path d="M17875 5418 c-4 -9 -4 -22 0 -27 3 -6 0 -8 -9 -5 -19 7 -56 -13 -56
-31 0 -8 -6 -12 -13 -9 -19 7 -58 -10 -89 -41 -16 -14 -28 -22 -28 -18 0 4 -7
-1 -15 -11 -12 -16 -18 -17 -27 -8 -22 22 -38 13 -38 -22 0 -38 16 -57 26 -32
3 9 14 16 23 16 9 0 33 8 53 19 24 12 40 15 47 8 15 -15 41 0 41 23 0 12 10
25 25 32 14 6 25 15 25 20 0 4 9 8 20 8 11 0 23 7 26 15 4 8 12 15 20 15 19 0
18 13 -5 41 -17 21 -20 22 -26 7z"/>
<path d="M18558 5409 c-41 -21 -47 -33 -22 -43 26 -10 32 -7 38 20 6 21 11 24
29 18 19 -6 20 -5 8 10 -7 9 -14 16 -15 16 0 -1 -18 -10 -38 -21z"/>
<path d="M5303 5408 c21 -7 32 -7 40 1 8 8 0 11 -28 10 -40 -1 -40 -1 -12 -11z"/>
<path d="M5210 5390 c0 -5 7 -7 15 -4 8 4 15 8 15 10 0 2 -7 4 -15 4 -8 0 -15
-4 -15 -10z"/>
<path d="M18037 5368 c-21 -22 -16 -48 10 -48 13 0 14 3 5 12 -16 16 -15 28 3
28 8 0 15 -4 15 -10 0 -6 10 -5 26 2 24 11 25 13 8 25 -24 18 -46 15 -67 -9z"/>
<path d="M5137 5374 c-11 -11 3 -24 24 -24 18 0 19 2 5 15 -16 17 -20 18 -29
9z"/>
<path d="M18443 5346 c-12 -13 -37 -29 -57 -36 -38 -12 -46 -30 -21 -50 15
-12 35 -6 35 11 0 6 -4 8 -9 4 -5 -3 -13 0 -16 5 -5 8 5 9 32 4 36 -7 37 -6
23 11 -14 16 -13 17 8 11 13 -5 22 -3 22 3 0 6 3 10 8 9 4 0 15 2 25 5 9 4 25
9 34 12 14 5 12 9 -11 20 -38 20 -49 19 -73 -9z"/>
<path d="M17931 5326 c-6 -7 -9 -21 -5 -30 3 -9 1 -16 -5 -16 -6 0 -11 7 -11
17 0 15 -2 14 -20 -2 -10 -9 -26 -15 -35 -11 -13 5 -14 2 -5 -15 6 -11 15 -17
20 -14 5 3 11 1 15 -5 4 -6 18 -4 38 8 18 9 41 20 52 23 18 6 18 7 1 8 -14 1
-17 7 -14 26 6 28 -12 34 -31 11z"/>
<path d="M8045 5279 c-20 -11 -40 -18 -43 -15 -3 4 -12 0 -21 -8 -9 -7 -36
-20 -61 -29 -115 -41 -127 -46 -98 -47 34 0 104 23 188 63 36 17 71 32 78 33
21 4 24 11 8 17 -7 3 -31 -3 -51 -14z"/>
<path d="M18091 5268 c-5 -13 -6 -27 -4 -32 3 -4 -4 -5 -15 -2 -11 4 -23 3
-26 -3 -3 -5 -15 -7 -26 -4 -11 3 -20 1 -20 -3 1 -15 26 -44 39 -44 15 0 14
17 -1 23 -7 3 0 6 15 6 29 1 87 29 87 42 0 40 -36 52 -49 17z"/>
<path d="M18286 5271 c-3 -5 1 -11 9 -15 8 -3 15 -12 15 -21 0 -8 5 -15 10
-15 15 0 12 27 -6 44 -18 18 -21 19 -28 7z"/>
<path d="M17790 5239 c0 -6 -7 -9 -15 -5 -11 4 -15 -2 -15 -21 0 -21 -3 -24
-12 -15 -20 20 -38 14 -38 -15 0 -24 -1 -25 -18 -10 -12 11 -22 13 -35 6 -21
-12 -22 -29 -2 -29 8 0 15 -7 15 -15 0 -19 26 -20 33 -1 3 7 18 16 32 20 30 8
55 28 55 45 0 5 7 14 16 19 9 5 14 14 10 21 -9 14 -26 14 -26 0z"/>
<path d="M18230 5241 c0 -5 6 -11 14 -14 9 -4 12 -14 9 -28 -4 -14 -2 -20 6
-18 7 3 12 8 12 12 -1 4 -1 18 -1 32 0 18 -5 25 -20 25 -11 0 -20 -4 -20 -9z"/>
<path d="M18173 5192 c-13 -2 -23 -7 -23 -12 0 -20 13 -40 27 -40 8 0 11 5 8
10 -4 6 -1 18 6 26 14 18 11 21 -18 16z"/>
<path d="M17920 5181 c0 -5 6 -12 13 -14 9 -4 8 -8 -3 -16 -12 -9 -10 -11 13
-11 27 0 27 0 11 25 -16 25 -34 33 -34 16z"/>
<path d="M7756 5155 c-25 -19 -9 -19 24 0 14 8 19 14 10 14 -8 0 -24 -6 -34
-14z"/>
<path d="M18100 5145 c-7 -8 -18 -15 -26 -15 -7 0 -17 -8 -23 -17 -8 -15 -12
-16 -22 -5 -19 18 -29 15 -29 -8 0 -23 -10 -26 -28 -8 -9 9 -12 7 -12 -10 0
-32 35 -47 57 -25 10 10 30 20 43 21 30 5 50 20 50 39 0 7 7 16 15 19 8 4 15
10 15 15 0 14 -26 10 -40 -6z"/>
<path d="M17860 5134 c-23 -12 -26 -17 -21 -44 2 -14 59 23 65 42 5 21 -9 22
-44 2z"/>
<path d="M17755 5077 c-22 -12 -42 -23 -44 -25 -3 -1 1 -8 7 -14 9 -9 12 -9
12 0 0 8 8 10 23 7 18 -5 28 0 40 19 29 44 21 46 -38 13z"/>
<path d="M16187 5064 c-7 -8 44 -92 60 -99 15 -5 18 21 3 30 -16 10 -12 45 5
45 8 0 22 -11 31 -25 9 -14 20 -25 25 -25 17 0 9 29 -15 57 -23 26 -25 27 -52
13 -21 -12 -28 -12 -31 -2 -5 13 -16 16 -26 6z"/>
<path d="M17900 5042 c-8 -3 -17 -8 -20 -12 -16 -20 -79 -48 -98 -43 -15 4
-22 1 -22 -10 0 -20 32 -46 37 -30 2 6 27 19 54 28 27 9 47 20 44 25 -3 4 6
11 20 14 14 4 25 10 25 15 0 12 -22 19 -40 13z"/>
<path d="M16128 5004 c-36 -19 -35 -46 2 -84 33 -34 65 -37 83 -9 8 13 4 28
-17 63 -30 51 -30 51 -68 30z m38 -29 c4 -8 3 -22 0 -31 -6 -15 -8 -15 -26 1
-11 10 -20 24 -20 32 0 18 39 17 46 -2z m29 -55 c-3 -5 -13 -10 -21 -10 -8 0
-12 5 -9 10 3 6 13 10 21 10 8 0 12 -4 9 -10z"/>
<path d="M7270 4983 c-8 -3 -28 -11 -45 -18 -16 -7 -51 -20 -77 -29 -94 -34
-83 -76 19 -76 91 0 160 53 154 118 -1 12 -24 15 -51 5z"/>
<path d="M16030 4985 c0 -18 52 -95 60 -90 6 4 2 18 -8 33 -22 36 -52 68 -52
57z"/>
<path d="M15920 4929 c0 -22 50 -90 60 -84 6 4 4 18 -5 35 -13 25 -13 29 0 34
9 3 25 -6 40 -21 30 -33 43 -25 19 12 -15 23 -23 26 -55 22 -20 -3 -42 0 -48
6 -8 8 -11 7 -11 -4z"/>
<path d="M15802 4851 c-19 -12 -11 -55 11 -59 10 -2 17 3 17 12 0 9 -4 16 -10
16 -5 0 -10 7 -10 15 0 8 7 15 15 15 8 0 15 -4 15 -10 0 -5 7 -10 15 -10 20 0
19 16 -1 24 -21 8 -36 7 -52 -3z"/>
<path d="M15706 4805 c-10 -8 -22 -12 -27 -10 -4 3 -10 1 -14 -5 -3 -5 -1 -10
5 -10 7 0 21 -11 32 -26 25 -31 33 -26 17 10 -10 21 -10 29 0 39 9 9 17 5 36
-18 27 -33 34 -23 9 13 -18 25 -31 27 -58 7z"/>
<path d="M15854 4795 c-10 -8 -14 -15 -8 -15 6 0 17 7 24 15 16 19 9 19 -16 0z"/>
<path d="M15626 4771 c-6 -10 34 -65 41 -57 7 6 -20 66 -29 66 -4 0 -9 -4 -12
-9z"/>
<path d="M15504 4739 c-8 -13 44 -69 65 -69 11 0 9 5 -7 20 -12 12 -22 27 -22
34 0 18 -27 29 -36 15z"/>
<path d="M15590 4719 c12 -16 25 -28 27 -25 8 8 -25 56 -38 56 -6 0 -1 -14 11
-31z"/>
<path d="M15390 4701 c0 -7 11 -26 25 -43 14 -16 25 -24 25 -16 -1 18 -50 77
-50 59z"/>
<path d="M15340 4673 c1 -13 49 -67 55 -62 3 3 -4 16 -15 29 -11 13 -20 27
-20 32 0 4 -4 8 -10 8 -5 0 -10 -3 -10 -7z"/>
<path d="M15280 4633 c8 -4 23 -15 32 -26 24 -27 43 -18 23 11 -10 14 -26 22
-43 21 -16 0 -21 -3 -12 -6z"/>
<path d="M15275 4591 c-3 -5 -1 -12 5 -16 5 -3 10 1 10 9 0 18 -6 21 -15 7z"/>
<path d="M15110 4565 c-7 -9 -8 -15 -2 -15 5 0 12 7 16 15 3 8 4 15 2 15 -2 0
-9 -7 -16 -15z"/>
<path d="M15165 4550 c3 -5 8 -10 11 -10 2 0 4 5 4 10 0 6 -5 10 -11 10 -5 0
-7 -4 -4 -10z"/>
<path d="M15002 4508 c2 -6 10 -14 16 -16 7 -2 10 2 6 12 -7 18 -28 22 -22 4z"/>
<path d="M14900 4491 c0 -6 4 -13 10 -16 6 -3 7 1 4 9 -7 18 -14 21 -14 7z"/>
<path d="M14750 4415 c7 -8 17 -15 22 -15 6 0 5 7 -2 15 -7 8 -17 15 -22 15
-6 0 -5 -7 2 -15z"/>
<path d="M14580 4385 c0 -5 9 -21 20 -35 11 -14 20 -20 20 -15 0 6 -9 21 -20
35 -11 14 -20 21 -20 15z"/>
<path d="M9046 4066 c-17 -27 -17 -47 2 -179 9 -60 18 -73 62 -83 46 -10 50
-13 44 -29 -4 -9 -20 -23 -36 -31 l-30 -15 29 -25 c27 -23 91 -35 78 -14 -3 6
1 10 9 10 13 0 15 12 13 69 -1 37 -8 75 -15 84 -7 8 -17 53 -22 99 -12 107
-18 128 -40 128 -10 0 -31 3 -47 6 -24 5 -33 1 -47 -20z"/>
<path d="M8800 3565 c-64 -21 -74 -115 -18 -158 16 -12 45 -35 64 -51 l36 -30
36 20 c72 39 75 128 5 196 -36 34 -70 41 -123 23z"/>
<path d="M8038 3537 c-22 -20 -68 -120 -68 -146 0 -13 50 -64 82 -85 35 -23
78 -14 124 26 40 36 42 49 10 119 -46 103 -97 133 -148 86z"/>
<path d="M14131 3465 c-33 -38 -39 -55 -18 -55 23 0 54 29 59 55 8 39 -7 39
-41 0z"/>
<path d="M10250 3405 c-7 -9 -10 -18 -7 -22 8 -7 37 15 37 28 0 14 -16 11 -30
-6z"/>
<path d="M10313 3330 c-50 -45 -94 -87 -97 -95 -8 -21 27 -40 104 -60 36 -9
94 -25 129 -36 113 -34 125 -31 220 65 72 73 83 87 71 100 -16 20 -40 21 -40
1 0 -8 -9 -19 -20 -25 -16 -8 -18 -8 -14 4 3 8 -1 18 -8 22 -9 6 -6 10 12 16
20 6 19 7 -7 3 -18 -2 -33 -1 -33 4 0 5 -10 11 -22 14 -13 4 -61 20 -108 36
-47 16 -87 30 -90 30 -3 1 -47 -35 -97 -79z m272 0 c3 -5 -3 -10 -14 -10 -11
0 -24 -7 -29 -15 -11 -21 -42 -9 -42 16 0 15 7 19 39 19 22 0 43 -4 46 -10z
m-155 -100 c0 -5 -4 -10 -10 -10 -5 0 -10 5 -10 10 0 6 5 10 10 10 6 0 10 -4
10 -10z"/>
<path d="M10784 3198 c-52 -50 -94 -97 -94 -104 0 -18 24 -29 116 -54 43 -12
104 -28 134 -36 105 -29 115 -26 203 66 69 73 92 114 62 113 -5 0 -80 24 -165
53 -85 30 -156 54 -159 54 -2 0 -46 -41 -97 -92z m246 12 c4 0 6 -9 3 -20 -6
-21 -47 -28 -58 -10 -9 15 15 42 32 35 8 -3 18 -5 23 -5z"/>
<path d="M13940 3229 c-36 -45 -41 -57 -31 -63 23 -14 71 39 71 78 0 24 -12
19 -40 -15z"/>
<path d="M8490 3166 c0 -8 -3 -21 -6 -30 -4 -11 -1 -16 10 -16 18 0 23 45 6
55 -5 3 -10 0 -10 -9z"/>
<path d="M8465 3160 c3 -5 8 -10 11 -10 2 0 4 5 4 10 0 6 -5 10 -11 10 -5 0
-7 -4 -4 -10z"/>
<path d="M8800 3152 c0 -4 -13 -13 -29 -19 -23 -8 -36 -8 -57 3 -34 18 -34 18
-34 -11 0 -18 5 -25 19 -25 11 0 22 6 24 13 11 27 27 -20 27 -81 0 -68 17
-122 46 -143 21 -15 50 -69 59 -109 7 -35 33 -66 44 -54 12 12 16 124 6 149
-5 11 -19 36 -32 55 -13 21 -20 43 -17 56 7 25 96 74 102 56 2 -7 13 -12 25
-12 18 0 16 5 -17 34 -20 19 -57 44 -82 56 -24 12 -46 26 -50 31 -6 11 -34 12
-34 1z"/>
<path d="M11308 3098 c-30 -29 -73 -70 -96 -91 -45 -42 -49 -49 -29 -64 16
-13 305 -93 335 -93 15 0 49 28 106 87 104 108 104 127 0 137 -21 3 -47 8 -58
12 -13 5 -23 1 -35 -15 -9 -12 -29 -23 -46 -24 -26 -2 -30 1 -27 23 1 13 8 27
14 32 17 9 6 18 -34 28 -18 5 -42 12 -54 15 -16 5 -33 -6 -76 -47z m132 -103
c0 -2 -13 -11 -29 -20 -31 -16 -58 -2 -30 16 15 9 59 12 59 4z"/>
<path d="M10275 3120 c-4 -6 -24 -22 -46 -36 -33 -20 -39 -30 -39 -58 0 -19 7
-39 16 -47 19 -15 144 -48 186 -49 34 0 43 -14 22 -35 -18 -18 -25 -17 -114
10 -99 30 -96 30 -108 -4 -10 -30 -9 -33 16 -42 49 -20 161 -49 186 -49 34 0
245 205 228 222 -6 6 -17 13 -24 14 -7 2 -24 6 -38 9 -14 3 -29 7 -35 9 -5 1
-19 7 -30 13 -17 9 -70 24 -92 25 -5 0 -28 7 -53 14 -54 17 -67 17 -75 4z"/>
<path d="M11750 2928 c-49 -51 -90 -98 -90 -104 0 -16 30 -27 205 -74 83 -23
173 -47 200 -55 166 -46 221 -60 315 -86 58 -15 138 -37 179 -49 41 -11 80
-20 87 -20 14 0 101 89 144 147 29 40 29 40 10 61 -11 12 -43 25 -77 32 -32 6
-87 20 -123 30 -36 11 -103 29 -150 40 -47 12 -112 30 -145 40 -33 10 -114 33
-180 50 -66 18 -153 44 -194 57 -40 12 -78 23 -83 23 -5 0 -49 -42 -98 -92z
m837 -239 c49 -11 70 -29 57 -50 -8 -13 -83 -11 -127 4 -52 19 -64 32 -47 52
14 17 17 17 117 -6z"/>
<path d="M10720 2971 c-97 -80 -193 -180 -187 -194 3 -8 30 -22 59 -30 29 -8
105 -29 169 -47 67 -18 125 -29 137 -26 12 4 40 30 64 59 24 29 64 72 91 96
52 48 55 57 30 77 -26 19 -33 17 -33 -10 0 -29 -37 -42 -74 -24 -34 15 -37 58
-3 58 44 1 -107 48 -170 52 -7 1 -13 5 -13 10 0 17 -37 7 -70 -21z m55 -149
c75 -19 140 -48 140 -62 0 -22 -39 -24 -109 -6 -33 8 -73 17 -87 20 -37 8 -74
40 -64 55 8 13 46 11 120 -7z"/>
<path d="M13757 2897 c-26 -34 -70 -89 -98 -122 -56 -67 -62 -74 -104 -129
-17 -22 -41 -51 -55 -65 -30 -32 -109 -121 -130 -147 -8 -11 -31 -39 -50 -64
-19 -25 -40 -49 -46 -55 -6 -5 -33 -39 -60 -75 -27 -36 -68 -86 -93 -112 -24
-27 -40 -48 -37 -48 4 0 -22 -36 -58 -79 -36 -43 -66 -81 -66 -85 0 -3 -10
-16 -22 -29 -26 -27 -36 -39 -109 -133 -29 -38 -82 -100 -117 -139 -35 -38
-68 -74 -73 -80 -5 -5 -21 -23 -37 -39 -85 -88 -140 -150 -162 -181 -14 -20
-44 -58 -68 -85 -23 -26 -54 -65 -68 -85 -14 -21 -32 -44 -40 -53 -9 -8 -26
-31 -39 -51 -12 -20 -30 -42 -39 -50 -9 -7 -16 -20 -16 -27 0 -8 -5 -13 -12
-12 -19 5 -77 -112 -77 -157 0 -22 -12 -101 -25 -175 -14 -74 -34 -184 -45
-245 -11 -60 -29 -141 -40 -180 -11 -38 -24 -98 -28 -132 l-9 -63 965 1 c627
1 952 4 926 10 -38 9 -339 52 -490 70 -38 4 -110 15 -160 23 -49 9 -166 27
-260 40 -93 14 -208 32 -255 40 -47 9 -101 16 -121 16 -21 0 -47 9 -63 21 -22
17 -26 28 -26 70 0 27 6 66 14 86 7 21 24 72 36 113 13 41 31 98 40 125 10 28
21 70 25 94 4 24 20 74 35 110 16 36 40 109 53 161 14 52 36 122 50 155 13 33
32 94 42 135 10 41 21 80 25 85 4 6 26 63 48 127 51 148 64 168 107 168 17 0
60 3 93 6 l61 7 -5 33 c-5 32 12 57 25 37 3 -6 20 -13 36 -17 26 -6 32 -3 43
23 l13 30 25 -21 c29 -26 30 -33 4 -55 -11 -10 -20 -23 -20 -30 0 -23 36 -14
48 12 13 28 29 31 57 11 12 -8 27 -11 40 -6 19 7 153 -11 173 -24 6 -3 13 -20
17 -36 6 -27 10 -30 46 -30 22 0 50 -5 62 -12 31 -17 127 -30 237 -32 53 -1
105 -7 117 -14 31 -17 34 -15 27 13 -7 29 -3 30 37 9 18 -9 29 -21 25 -29 -5
-15 34 -28 57 -19 16 6 11 28 -20 101 -7 17 -13 37 -13 45 -1 8 -5 7 -15 -6
-18 -24 -40 -15 -60 24 -15 30 -15 33 1 51 19 22 8 25 -18 5 -13 -9 -18 -30
-20 -74 -1 -34 -6 -62 -10 -62 -11 0 -42 49 -45 73 -4 26 -14 36 -20 20 -7
-19 -43 -16 -50 3 -3 9 2 32 12 51 18 32 18 37 3 66 -9 18 -19 40 -22 50 -9
29 -46 21 -58 -13 -7 -22 -15 -29 -27 -26 -9 3 -23 1 -30 -4 -9 -5 -22 -5 -35
2 -10 6 -33 11 -50 12 -26 1 -32 6 -34 29 -4 29 -19 36 -28 12 -7 -18 -30 -20
-37 -2 -9 24 6 78 25 92 12 7 18 20 15 28 -10 26 9 36 86 43 73 6 77 6 77 -14
0 -35 71 -45 115 -16 21 13 40 15 110 9 88 -7 115 -20 115 -55 0 -28 14 -32
37 -11 16 16 24 17 53 7 22 -7 36 -19 38 -31 2 -11 14 -30 27 -42 l24 -23 26
24 c14 13 40 31 57 39 28 14 34 14 54 0 13 -8 26 -23 29 -33 3 -10 16 -25 28
-33 49 -33 177 -167 177 -186 0 -18 46 -60 67 -61 10 -1 63 -76 63 -90 0 -6 7
-10 17 -10 15 0 60 -30 132 -87 43 -35 151 -68 151 -48 0 10 -147 291 -178
339 -13 22 -36 61 -51 87 -31 56 -192 280 -280 391 -71 90 -214 236 -311 320
-82 70 -243 235 -306 313 -80 98 -126 145 -143 145 -9 0 -37 -28 -64 -63z
m-257 -766 c0 -24 -3 -28 -20 -24 -13 3 -22 -1 -26 -12 -5 -13 -9 -14 -16 -3
-7 10 -10 10 -19 -4 -9 -17 -39 -26 -39 -12 0 18 24 44 40 44 11 0 20 3 20 8
0 7 36 28 53 31 4 0 7 -12 7 -28z m-141 -104 c-9 -7 -19 -23 -24 -36 -6 -21
-9 -22 -22 -8 -13 13 -13 17 5 35 21 21 44 32 52 25 3 -3 -2 -10 -11 -16z m49
-60 c2 -10 -3 -17 -12 -17 -10 0 -16 9 -16 21 0 24 23 21 28 -4z m255 -283
c-5 -19 -31 -10 -36 12 -4 23 -3 24 17 11 11 -8 20 -18 19 -23z"/>
<path d="M9641 2824 c0 -11 3 -14 6 -6 3 7 2 16 -1 19 -3 4 -6 -2 -5 -13z"/>
<path d="M11067 2702 c-51 -52 -56 -66 -29 -77 30 -12 333 -95 347 -95 7 0 23
12 34 28 12 15 30 38 42 51 28 33 13 46 -92 77 -130 38 -227 64 -242 64 -7 0
-34 -22 -60 -48z m213 -43 c0 -11 -27 -12 -34 0 -3 4 -3 11 0 14 8 8 34 -3 34
-14z"/>
<path d="M11623 2625 c-54 -58 -99 -112 -101 -119 -4 -18 21 -27 243 -87 22
-6 50 -15 63 -20 47 -18 64 -10 139 68 100 104 126 139 118 162 -3 10 -18 21
-33 24 -49 10 -167 39 -187 47 -128 47 -128 47 -242 -75z m277 35 c0 -21 -24
-28 -35 -10 -8 14 3 30 21 30 8 0 14 -9 14 -20z m-140 -135 c10 -12 9 -16 -5
-21 -17 -7 -38 13 -29 28 8 12 20 10 34 -7z"/>
<path d="M8911 2704 c0 -11 3 -14 6 -6 3 7 2 16 -1 19 -3 4 -6 -2 -5 -13z"/>
<path d="M12069 2418 c-44 -48 -47 -54 -33 -69 8 -9 27 -19 42 -22 27 -5 37
-8 172 -47 132 -37 151 -37 189 1 65 67 60 87 -32 112 -28 8 -102 28 -164 46
-61 17 -115 31 -119 31 -4 0 -28 -23 -55 -52z m201 -33 c0 -8 -7 -15 -15 -15
-26 0 -18 20 13 29 1 1 2 -6 2 -14z"/>
<path d="M14020 1880 c0 -5 4 -10 9 -10 6 0 13 5 16 10 3 6 -1 10 -9 10 -9 0
-16 -4 -16 -10z"/>
<path d="M14470 1764 c0 -8 5 -12 10 -9 6 4 8 11 5 16 -9 14 -15 11 -15 -7z"/>
<path d="M14277 1744 c-8 -8 1 -24 14 -24 5 0 9 7 9 15 0 15 -12 20 -23 9z"/>
<path d="M14155 1658 c-4 -16 -4 -36 0 -45 12 -32 28 12 17 45 l-10 27 -7 -27z"/>
<path d="M14432 1579 c2 -6 8 -10 13 -10 5 0 11 4 13 10 2 6 -4 11 -13 11 -9
0 -15 -5 -13 -11z"/>
<path d="M14330 1490 c0 -5 5 -10 10 -10 6 0 10 5 10 10 0 6 -4 10 -10 10 -5
0 -10 -4 -10 -10z"/>
<path d="M15260 1216 c-26 -68 -23 -110 14 -189 19 -42 38 -93 42 -113 7 -35
6 -37 -17 -30 -65 18 -79 18 -85 2 -9 -24 11 -42 64 -56 97 -26 142 -65 142
-124 0 -15 14 -35 39 -55 22 -18 48 -51 59 -75 21 -44 64 -101 131 -176 23
-25 56 -65 74 -90 55 -76 55 -75 221 197 31 50 56 95 56 100 0 17 -177 243
-273 347 -116 127 -283 238 -410 272 -46 12 -48 12 -57 -10z"/>
<path d="M11763 650 c-25 -10 -30 -39 -11 -58 19 -19 72 -14 91 8 21 25 21 28
3 46 -16 16 -50 17 -83 4z"/>
</g>
</svg>
